<svg width="120" height="51" fill="none" xmlns="http://www.w3.org/2000/svg">
    <mask id="a" style="mask-type:alpha" maskUnits="userSpaceOnUse" x="0" y="0" width="52" height="51">
        <path fill-rule="evenodd" clip-rule="evenodd" d="M0 0v51h51.346V15.093H48.46v-2.868h-2.884V9.356h-2.885V6.488h-2.885V0H0Z" fill="#C4C4C4"/>
    </mask>
    <g mask="url(#a)" fill="#fff">
        <path d="M67.134 29.159c-.032-2.046-.607-4.093-.723-6.135a22.2 22.2 0 0 0-.292-3.231c-.253-1.22-.857-2.477-.767-3.748.065-.89.557-1.69.723-2.556a4.317 4.317 0 0 0-.336-2.398c-.69-1.795-2.205-3.281-3.668-4.47a13.56 13.56 0 0 1-1.269-1.177l-.206.233a.902.902 0 0 0-1.055.162c-.206.201-.817.097-1.11.18a6.298 6.298 0 0 0-1.258.646 13.627 13.627 0 0 0-2.736 2.197 54.322 54.322 0 0 1-2.754 2.47 6.41 6.41 0 0 1-1.21.76 3.147 3.147 0 0 1-.575.151c1.6-2.035 3.159-4.028 4.138-6.461.575-1.436.987-2.897 1.62-4.308.447-1.016.66-2.108 1.084-3.106a.46.46 0 0 0-.305-.672.47.47 0 0 0-.28.023c-.256-.599-.506-1.197-.75-1.795-1.63-3.95-7.257-4.107-10.549-4.211-2.855-.09-5.483-.338-7.623-2.434-1.3-1.274-3.003-2.588-4.944-2.448-2.461.172-4.377 1.698-6.505 2.767-1.309.66-2.718.876-4.077 1.382l-.474.19a.725.725 0 0 0-.921-.085c-.958.57-2.107.606-3.156.944-1.207.387-2.44.743-3.632 1.177-1.756.646-3.115 1.795-4.424 3.098-.704.718-1.525 1.329-2.186 2.057C6.154-.802 5.699.156 4.745.835a32.091 32.091 0 0 1-6.068 3.324c-1.999.84-4.092 1.612-5.028 3.715-.361.812-.838 1.537-1.228 2.334a26.383 26.383 0 0 0-1.36 3.809c-.36 1.206-.646 2.434-.99 3.643-.321 1.128-.704 2.212-.636 3.4.062 1.023.448 1.72.831 2.624.546 1.282.243 2.596-.1 3.877-1.053 3.931-2.223 8.957-.26 12.737.585 1.127 1.242 2.255 1.307 3.554.058 1.153-.17 2.283.018 3.432.362 2.136 1.446 3.694 3.22 4.922 1.967 1.375 3.995 2.602 5.726 4.254.665.635 1.106 1.39 1.854 1.96.936.718 1.861 1.676 2.891 2.258 2.035 1.16 4.171 2.05 6.27 3.07.959.462 1.913.922 2.892 1.37.98.45 1.764 1.232 2.718 1.763 1.12.625 2.198 1.077 3.492.758 1.134-.273 2.168-.844 3.35-1.013a6.186 6.186 0 0 1 1.587 0c0-.115.032-.233.047-.359a.828.828 0 0 0 .675-.502 35.675 35.675 0 0 0 1.652-5.42c.336-1.383.546-2.769.915-4.14.125 1.033.322 2.056.589 3.062.64 2.251-.127 5.191 1.72 7.008a.95.95 0 0 0 .231.172c.022.111.04.222.062.334h.029c1.37-.252 2.595-.894 3.816-1.547a.879.879 0 0 0 .141.143c.044.04.12 0 .084-.064a1.26 1.26 0 0 1-.084-.155c.798-.45 1.623-.846 2.473-1.188 1.16-.438 2.497-.847 3.545-1.522.636-.406 1.464-1.752 2.22-1.813.188-.015.371-.068.538-.158l.289-.072c2.07-.589 2.584-2.57 4.044-3.848 1.529-1.336 3.39-2.305 4.926-3.658a13.887 13.887 0 0 0 3.644-5.446c.14-.36.245-.973.495-1.293-.054.119.723-.387.723-.38.6-.449.936-1.095 1.528-1.572.723-.593 1.269-1.307 2.09-1.777 1.066-.61 2.168-1.038 3.212-1.738 1.555-1.059 2.48-2.933 2.769-4.76a9.208 9.208 0 0 0-.043-2.818 30.757 30.757 0 0 1-.427-3.956ZM56.371 10.104c.383.344.737.719 1.059 1.12.94 1.199 1.258 2.66 1.413 4.168.12 1.18-.658 2.925-.614 4.282a11.449 11.449 0 0 0-.17 5.385c-.362 1.077-.307 2.416-.55 3.482-.054.23-.119.46-.188.69-.292-.629-.6-1.25-.885-1.878.22-.89.459-1.777.748-2.635.058-.169-.213-.244-.267-.075a28.871 28.871 0 0 0-.654 2.326 15.181 15.181 0 0 1-.622-1.612c-.672-2.118-.054-3.949.235-6.052a.397.397 0 0 0-.12-.341 8.697 8.697 0 0 0 .51-2.438c0-.858.192-1.96-.054-2.771-.246-.812-1.045-1.684-1.62-2.348.59-.452 1.179-.887 1.779-1.303Zm-4.699 31.034c-.028-.194-.328-.111-.3.083.022.13.04.258.062.388-.072.068-.148.132-.217.204a40.002 40.002 0 0 0-1.615 1.745 6.48 6.48 0 0 0-.85-2.671 12.026 12.026 0 0 1 2.653-2.01 26.948 26.948 0 0 0 3.614-2.312c1.833-1.454 3.708-4.136 2.696-6.52-.065-.154-.133-.305-.202-.455.058-.183.112-.36.163-.553.193-.749.337-1.509.43-2.276.05-.36.076-.718.13-1.077.09.309.195.624.318.944.51 1.335 1.124 2.617 1.644 3.949.781 1.978-.585 3.715-1.55 5.352-1.478 2.513-4.731 3.543-6.936 5.457l-.04-.248Zm-6.104 8.257c-.061-.905-.108-1.795-.21-2.718a22.418 22.418 0 0 0-.188-1.3 18.367 18.367 0 0 1 1.605-2.25c.111.03.229.03.34 0 .182.789.274 1.596.275 2.405 0 .27.04.535.057.8-.455.654-.873 1.33-1.254 2.03-.21.344-.419.692-.64 1.022l.015.011Zm-7.893 4.512c.104.381.198.765.292 1.153-.723.47-1.445.897-2.168 1.357-.076-.41-.152-.819-.239-1.228a19.147 19.147 0 0 0-.235-.926c.517-.338 1.023-.686 1.515-.977 1.113-.653 2.052-1.486 3.158-2.154l.788-.498c.174.768.322 1.536.445 2.311-.828.401-1.613.882-2.346 1.436-.238.19-.48.36-.723.535a38.99 38.99 0 0 0-.274-1.077.119.119 0 0 0-.138-.066.12.12 0 0 0-.09.124l.015.01Zm-1.808 4.24c.167.819.362 1.623.546 2.438.033.147.054.298.083.445-.723.258-1.424.527-2.118.843a26.919 26.919 0 0 0-.332-1.493c-.109-.42-.206-.84-.3-1.26.155-.04.31-.079.462-.133a8.895 8.895 0 0 0 1.645-.85l.014.01Zm-.437-1.479c-.596.398-1.084.89-1.728 1.196-.065.032-.133.057-.206.086-.173-.858-.361-1.716-.524-2.574.184-.038.365-.087.542-.148a8.203 8.203 0 0 0 1.594-.822l.022.076c.18.69.314 1.39.441 2.093l-.141.093Zm5.631-6.17a8.739 8.739 0 0 0 2.169-1.724c.1.768.184 1.54.34 2.294.028.147.06.29.093.438-.223.18-.456.35-.697.506-.467.301-.954.56-1.446.815a58.298 58.298 0 0 0-.473-2.34l.014.01Zm2.772.495c-.173-.83-.26-1.673-.383-2.514.64-.861 1.03-1.841 1.54-2.782.047.323.094.65.13.977.108 1.012.144 2.035.213 3.051a9.11 9.11 0 0 1-1.446 1.576c-.021-.111-.047-.215-.068-.309h.014Zm3.716-6.706a7.646 7.646 0 0 0-.239-1.271.414.414 0 0 0 .17-.388c0-.1-.029-.194-.047-.284l.246-.283c-3.614-1.935-7.634-3.59-10.915-5.992-.026.054-.05.112-.073.165l-.202-.064c-.267-.08-.531.036-.784-.15-.152-.112-.362.14-.203.265.305.248.63.47.972.664-.205.9-.252 1.849-.682 2.685-.13.255-.319.592-.463.833-.78 1.285-1.027 1.12-2.252 1.49a2.33 2.33 0 0 0-1.037.492c-.853.692-1.218 1.177-2.328 1.604-1.489.575-2.497 1.594-4.163.98-.69-.255-1.5-.42-2.169-.718-.925-.434-1.543-1.278-2.403-1.838.017-.452.042-.9.076-1.346.487.252.994.467 1.514.643.546.197 1.084.298 1.655.46.571.16 1.204.681 1.807.739.261.006.52-.039.763-.133.722-.142 1.43-.348 2.114-.618.774-.359 1.027-1.012 1.59-1.615.655-.718 1.645-.994 2.068-1.92.466-1.017 0-2.488.936-3.3.474-.405 1.171-.57 1.659-1.005.839-.747 1.214-1.414 2.266-1.974a10.747 10.747 0 0 0 2.772-2.1c.878-.87 1.084-1.465 1.215-2.671.09-.865.516-1.537.647-2.373.055-.407.086-.817.094-1.228.43-.675.321-1.418.17-2.226-.214-1.12-.17-2.617-.998-3.518a2.247 2.247 0 0 0-.846-.542 17.81 17.81 0 0 1-1.124-.502c0-1.03 0-2.065.018-3.095v-.021c.244-.108.512-.151.777-.126.058.013.114.028.17.047-.076.265-.148.53-.22.793a.095.095 0 0 0 .066.117.096.096 0 0 0 .118-.067c.083-.255.159-.506.231-.757.676.359 1.269 1.213 1.731 1.709.723.75 1.522 1.317 1.584 2.44.061 1.124 0 2.115.159 3.232-.13 2.265.679 4.835-.463 6.802-.575.988-.864 2.01-1.308 3.016-.402.915-1.956 1.795-2.769 2.287-.907.538-1.89 1.138-2.468 2.05l.798.376c.878-1.274 2.711-2.193 3.893-3.101.397-.305.954-.388 1.297-.758.456-.502.687-1.436 1.038-2.057.35-.62.867-1.289 1.033-1.996.067-.278.08-.567.036-.85.723-1.332 1.67-2.725 1.768-4.265 0-.187-.282-.187-.293 0-.083 1.35-.871 2.624-1.554 3.82-.033-.162-.069-.33-.098-.518a23.348 23.348 0 0 1-.173-5.636.3.3 0 0 0-.362-.301c0-.216-.028-.431-.025-.657 0-.718.315-1.461.253-2.19-.08-.94-.835-1.953-1.587-2.764l.109-.33c.203-.618.348-1.252.434-1.896.321.442.621.89.936 1.332a.203.203 0 0 1 0 .047c.002.013.01.025.022.033a.054.054 0 0 0 .04.01c.418.607.903 1.167 1.445 1.669 1.417 1.256 1.894 2.082 1.876 4.067 0 .169 0 .36-.033.56a24.36 24.36 0 0 0-.817 4.667 8.618 8.618 0 0 0 .047 2.154c.112.621.362 1.145.492 1.723a5.328 5.328 0 0 1-.893 1.127c-.05.047.022.115.076.076.334-.275.624-.598.86-.959.03.207.036.417.018.625-.184 2.068-1.51 3.59-3.083 4.9l.575.55a18.668 18.668 0 0 0 2.078-1.817c.571-.66.76-1.415 1.03-2.237.362-1.123.163-2.017-.069-2.968.181-.36.362-.697.54-1.03.675-1.221 1.268-2.481 1.882-3.734a7.885 7.885 0 0 0 .531 3.152c.065.172.138.34.206.51-.162.319-.329.639-.516.944-.188.305-.416.639-.615.965-.04.065-.77 1.232-.784.582 0-.043-.072-.058-.08 0a.803.803 0 0 0 0 .488.09.09 0 0 0 .112.061c.495-.194.673-.57.95-1.005.362-.578.724-1.138 1.053-1.73.253.606.52 1.206.773 1.816-.126.29-.257.585-.408.872a4.218 4.218 0 0 0-.593 1.663c0 .093.127.1.155.021.268-.761.669-1.436 1.005-2.154.553 1.48-.466 2.779-1.185 4.003-.918 1.569-2.743 2.37-4.29 3.41l.444.481c.203-.133.416-.265.64-.391a22.697 22.697 0 0 0 3.076-1.974c1.236-.98 2.49-2.617 2.53-4.265.206-.514.321-1.102.426-1.436.361-1.11.604-2.244.864-3.375.061.201.13.406.21.614.256.671.542 1.325.824 1.978-.087.36-.178.736-.272 1.099-.177.687-.309 1.385-.393 2.09-.051.328-.138.651-.26.961 0 .036-.565 1.375-.525.618a.043.043 0 0 0-.041-.031.044.044 0 0 0-.042.03c-.061.27-.065.173 0 .439a.084.084 0 0 0 .123.05c1.055-.603.98-2.316 1.214-3.303.123-.513.242-1.03.362-1.55.159.358.318.742.466 1.12.148.38.216.787.199 1.195-.116.47-.232.937-.362 1.404-.363.74-.768 1.459-1.214 2.153-1.28 2.183-4.059 3.098-6.01 4.718.104.125.21.25.31.38a.16.16 0 0 1-.015.211.163.163 0 0 1-.212.015c-.134-.108-.26-.226-.39-.337-.087.082-.178.161-.265.247-.393.403-.784.826-1.17 1.26l.581.417c.188-.208.362-.406.564-.6.46.854.73 1.795.795 2.761a31.187 31.187 0 0 0-1.659 2.11 19.306 19.306 0 0 0-.148-1.758l.015.01Zm-31.34 7.19c0 .126.026.248.037.36l-.148-.076a8.69 8.69 0 0 0-1.323-.514c-.112-1.152-.304-2.304-.438-3.46.514.247 1.053.44 1.609.574.404.97.14 2.086.263 3.116Zm1.562 2.19c.08 1.282.242 2.563.242 3.848v.018c-.361-.18-.405-.359-.564-.549a5.54 5.54 0 0 0-.661-.607c0-.477-.022-.955 0-1.436 0-.578.021-1.16 0-1.74.09.035.22.064.307.103.239.097.467.218.68.363h-.004Zm3.375 2.563c.263.076.53.135.8.176.053.69.108 1.379.198 2.053.05.369.105.739.163 1.11a9.766 9.766 0 0 1-1.428-.144 3.537 3.537 0 0 1-.502-.122 166.34 166.34 0 0 1-.166-1.13 15.278 15.278 0 0 1-.138-2.395c.342.187.703.339 1.077.452h-.003Zm-1.203 1.853c.054.358.116.75.173 1.13l-.148-.057c-.112-.488-.25-.97-.361-1.436a.13.13 0 0 0-.098-.093l-.253-.05c-.17-.037-.242.222-.072.258.242.046.401.678.499 1.199a5.812 5.812 0 0 1-1.5-1.142v-1.4a71.794 71.794 0 0 0-.123-2.513c.271.255.513.55.82.89.278.304.595.57.944.79-.027.81.014 1.62.123 2.424h-.004Zm-3.55 1.794v.804a24.47 24.47 0 0 0-1.38-.667 3.78 3.78 0 0 0 .026-.38c0-1.042-.152-2.072-.214-3.106.268.083.535.172.792.28.276.115.537.263.777.442-.004.876-.004 1.752.003 2.627h-.003Zm-3.56-5.442c0-.474.03-.951.037-1.436 0-.359 0-.7.022-1.052.549.183 1.124.32 1.673.496 0 .869-.036 1.737-.061 2.606a10.48 10.48 0 0 0-1.667-.614h-.003Zm-.205 2.531c.098.702.147 1.41.144 2.118-.506-.201-1.012-.406-1.503-.61l-.069-.032a148.585 148.585 0 0 1-.17-3.113c.492.158 1.001.29 1.493.434.009.403.045.805.108 1.203h-.003Zm-3.936.126c0-.59 0-1.11-.025-1.285a29.985 29.985 0 0 1-.112-1.882c.303.237.607.478.932.7.355.23.736.418 1.135.56a23.602 23.602 0 0 0 .195 3.077c-.72-.359-1.399-.808-2.122-1.167l-.003-.003ZM-.452 46.469l-.109-.057-.075-.058v-4.85a5.102 5.102 0 0 0 1.854 2.223V47.57A14.708 14.708 0 0 0-.45 46.47h-.003ZM1.18 17.951c.13.108.26.216.398.309.036-.061.065-.126.101-.187.524-.904 1.153-1.755 1.468-2.76.361-1.153.361-2.434 1.142-3.429.636-.804 2.053-1.102 2.891-1.77.839-.667 1.612-1.313 2.498-1.888 1.778-1.156 2.381-2.333 3.184-4.272.361-.886.68-1.773 1.294-2.513.256-.303.559-.566.896-.779a.105.105 0 0 0 .134.05C16.6.186 18.11-.762 19.567-.995c1.576-.255 3.463.2 4.988-.312.105 1.141.264 2.29.412 3.431-1.06.36-2.274.047-3.376.176a8.302 8.302 0 0 0-2.938.945h-.033c-1.608.717-2.855 1.076-3.614 2.821-.596 1.393-.896 2.588-2.299 3.385-.838.444-1.633.962-2.378 1.548-1.38 1.134-2.729 1.949-3.462 3.622-.438 1.005-.445 2.075-.969 3.066-.34.639-.773 1.227-1.084 1.87l.531.118c.065-.14.134-.276.21-.405a18.43 18.43 0 0 1-.13 1.339 15.52 15.52 0 0 1-2.386-.822c.305-1.501.76-2.968 1.356-4.38.068-.158-.167-.298-.239-.136a23.452 23.452 0 0 0-1.388 4.394 7.017 7.017 0 0 1-1.76-1.185l.173-.528ZM9.075 16.8c0 1.149-.361 1.493-.969 2.402a7.56 7.56 0 0 0-.516.908c.278.054.556.115.827.18.15-.373.327-.733.531-1.078.539-.922.893-2.53 1.602-3.27.82-.85 2.168-1.257 3.082-2.021.409-.36.611-.901.933-1.307.361-.477.882-.843 1.254-1.328.13-.168.251-.343.362-.524.361-.36.657-.75.889-1.03.404-.492.882-.916 1.283-1.408.133-.176.254-.362.361-.556.152-.058.362-.126.647-.22 2.23-.717.452 0 1.446-.143 1.15-.158 2.107-.61 3.198-1.009.467-.198.915-.439 1.338-.718.068.679.148 1.332.256 1.975a2.49 2.49 0 0 0-1.67-.316c-.51.122-.697.391-1.062.75a11.428 11.428 0 0 1-3.076 2.154 8.27 8.27 0 0 0-3.53 2.973.144.144 0 0 0 .014.18.144.144 0 0 0 .054.035c-1.385 1.712-2.433 3.798-4.099 5.191a4.555 4.555 0 0 0-1.536 2.438l.156.075a.359.359 0 0 1-.268.628c-1.344-.359-3.123-.65-4.857-1.077.083-.633.13-1.27.14-1.91.393-.587.71-1.22.947-1.884.308-.984.3-2.075.973-2.922.545-.686 1.753-.941 2.472-1.508.72-.567 1.373-1.12 2.129-1.612 1.514-.984 2.027-1.989 2.71-3.644a8.202 8.202 0 0 1 1.106-2.154 3.18 3.18 0 0 1 .766-.664.083.083 0 0 0 .113.043c1.203-.452 2.493-1.256 3.737-1.457 1.33-.216 2.916.165 4.214-.255.065.528.123 1.055.166 1.58l.033.409c-.105.068-.206.14-.297.204a12.087 12.087 0 0 1-2.891 1.436c-.99.36-1.171.036-2.078-.082-1.222-.155-1.68.502-2.082 1.26a.087.087 0 0 0-.105 0c-.744.588-1.167 1.353-1.71 2.125-.202.287-.415.567-.628.844a2.788 2.788 0 0 0-.63.775c-.36.441-.762.876-1.17 1.3-1.164 1.21-3.799 1.532-4.482 3.187-.1.34-.126.695-.08 1.045h-.003Zm36.377-9.88c-.274-.114-.545-.218-.766-.305a3.717 3.717 0 0 0-.6-.175c.041-.862.066-1.724.076-2.585H45.619v.107a30.863 30.863 0 0 1-.163 2.959h-.004Zm-.918 4.919c-.256-.292-.527-.57-.813-.833.141-1.275.257-2.549.329-3.83.257.03.51.092.752.183.192.07.38.15.564.24-.214 1.404-.622 2.836-.814 4.261l-.018-.021Zm-.722-5.453c-.427-.072-.868-.108-1.276-.173a9.84 9.84 0 0 1-2.386-.574c-.795-.32-1.482-.847-2.273-1.152-.792-.306-1.446-.069-2.252-.04a3.94 3.94 0 0 1-2.136-.488c.044.316.073.632.087.955.66.223 1.352.344 2.05.359.343 0 .657-.111.997-.13.791-.039 1.272.413 1.832.884 1.135.955 2.378 1.077 3.777 1.105.492 0 1.023 0 1.532.025-.054.902-.119 1.795-.21 2.7-.032.305-.06.614-.093.923a6.289 6.289 0 0 0-2.194-1.239c.018-.359.029-.75.029-1.138a.147.147 0 0 0-.148-.147.149.149 0 0 0-.148.147v1.056a7.853 7.853 0 0 0-1.374-.245c-1.735-.143-2.891 1.178-4.525-.359-.535-.491-.98-1.152-1.572-1.586-.022.43-.043.854-.054 1.267 1.008.933 1.832 2.222 3.22 2.33.698.057 1.185-.399 1.807-.571a4.394 4.394 0 0 1 2.458.215c-.02.447-.068.892-.145 1.332-.065.36-.144.718-.227 1.052a1.307 1.307 0 0 0-.362-.057c-.361 0-.723.359-1.084.495-1.312.449-3.304-.301-4.598-.718-.325-.108-.748-.226-1.17-.359 0 .295-.037.585-.062.88 1.063.25 2.169.423 3.228.782.563.19 1.156.496 1.77.492.25-.022.494-.084.723-.183v2.872c-.328-.169-.657-.36-1.019-.56-1.352-.783-2.859-.334-4.337-.36-1.478-.024-2.461-.692-3.383-1.82a3.55 3.55 0 0 0-1.052-1.033c-.628-.33-1.427-.36-2.1-.564-.907-.273-1.76-.689-2.652-.99a5.874 5.874 0 0 0-3.716.021c-.723.298-1.286.958-1.807 1.644-1.34 1.2-2.02 3.619-2.606 5.026-.932 2.211-2.783 3.981-2.891 6.462-.065 1.569.668 3.062.108 4.606-.43 1.18-1.398 2.096-1.832 3.23-.748 1.99.954 2.294 2.429 2.837.697.258 1.995.516 2.53.962.459.395.777 1.012 1.163 1.482l.087.104c-.032.46-.04.922-.025 1.382a.047.047 0 0 0 .047.047.047.047 0 0 0 .047-.047c0-.398.047-.793.087-1.188a16.282 16.282 0 0 0 2.081 2.251c.202.166.417.315.644.445-.018.46-.026.916-.022 1.375a3.319 3.319 0 0 0-.336-.183c-.962-.445-1.778-1.023-2.75-1.386-1.511-.567-1.92-2.024-3.12-2.99-.867-.7-1.847-.718-2.891-.966a2.642 2.642 0 0 1-1.843-1.515c.067-.766.074-1.537.021-2.304-.018-.151-.263-.155-.242 0 .047.574.047 1.152 0 1.726-.618-2.035 0-4.968.665-6.461.272-.593.513-1.2.723-1.817l-.112-.018a.222.222 0 0 1-.137.338 3.639 3.639 0 0 1-1.446-.094 2.33 2.33 0 0 0-.217-.668c-.065-.125-.253 0-.191.112.076.157.132.324.166.495a19.868 19.868 0 0 1-2.339-.919c.04-.287.087-.574.138-.861 0-.083.029-.162.04-.244l.697.2c0-.168 0-.337.025-.513.022-.829.102-1.655.239-2.473a15.14 15.14 0 0 1 2.476.718c-.08 1.001-.058 2.046-.181 3.084l.987.315a7.163 7.163 0 0 0 .177-1.565c.018-1.96-.069-3.859 1.402-5.385 2.208-2.265 3.683-5.09 5.783-7.438a.097.097 0 0 0 0-.122c.625-.359 1.32-.639 1.97-.951a9.045 9.045 0 0 0 1.807-1.153c1.247-1.02 1.908-1.4 3.292-.359.08.058.152.119.228.18.23.864.542 1.706.929 2.513a.36.36 0 0 0 .323.199.363.363 0 0 0 .324-.2c.212-.51.334-1.052.361-1.604l.203-.025a73.309 73.309 0 0 1-1.178-6.749 22.422 22.422 0 0 0-.333-1.658l.123-.108-.054-.539-.192.155-.123-.442c-.235-.836-.603-1.651-.885-2.484.535-.402.925-.937 1.514-1.3a5.524 5.524 0 0 1 1.963-.764c1.084-.122 2.006.52 2.67 1.386.955 1.245 1.193 3.011 2.776 3.65a7.92 7.92 0 0 0 2.588.478c.401 0 .773-.133 1.171-.15.929-.051 1.493.48 2.147 1.03 1.117.94 2.32 1.206 3.647 1.274.057.829.036 1.683-.008 2.53Zm-1.634 7.538a4.818 4.818 0 0 0-1.374-.965c.18-.782.309-1.575.387-2.373a4.44 4.44 0 0 1 1.75 1.16c.126.147.242.297.36.448-.043.33-.09.66-.147.987a12.25 12.25 0 0 1-.275 1.436c-.25-.24-.488-.488-.701-.689v-.004Zm-3.029 5.478a.072.072 0 0 0 .072.072.073.073 0 0 0 .073-.072c0-.28.021-.56.029-.84.102.02.203.046.303.076 1.413.463 1.771.764 1.992 2.154.094.614.253 1.267.314 1.917a.151.151 0 0 0-.032.057c-.322 1.515-.886 2.815-1.323 4.272-.466 1.555-1.323 2.538-2.53 3.565-.495.416-1.084.6-1.583 1.002a6.754 6.754 0 0 0-1.02 1.303c-.693.922-1.424 1.21-2.324 1.795-.31.163-.574.4-.77.689-.574.933-.082 2.233-.664 3.173-.3.481-1.085.78-1.504 1.181-.596.56-.752 1.347-1.601 1.684-.524.16-1.059.28-1.601.359-.157.063-.307.14-.448.233a2.503 2.503 0 0 1-1.609-.65c-.498-.14-1.254-.143-1.691-.29a6.312 6.312 0 0 1-1.807-1.127c-.083-.069-.163-.144-.242-.216 0-.118.025-.237.04-.359a9.05 9.05 0 0 0 .09-1.594 12.25 12.25 0 0 0-.275-1.436c-.029-.161-.271-.093-.246.069.141.54.243 1.092.304 1.647a9.974 9.974 0 0 1-.101 1.505c-.582-.546-1.11-1.16-1.717-1.68-.339-.305-.659-.63-.958-.973.105-.826.213-1.655.271-2.492.802.101 1.55.453 2.136 1.005.662.643.777 1.515 1.24 2.215 1.034 1.576 2.83 1.752 4.337.89.77-.434 1.807-.832 2.425-1.482.813-.854.944-2.172 1.72-3.084.854-1.001 1.497-2.355 2.56-3.087.896-.621 1.99-.567 2.873-1.149.882-.581 1.492-1.795 1.937-2.739.247-.47.424-.973.524-1.493.101-.679-.325-1.142-.159-1.95.025-.125-.163-.226-.224-.093a.513.513 0 0 0-.032.08 7.683 7.683 0 0 0-.304-1.616 4.389 4.389 0 0 0-1.963-1.907c-.723-.308-1.688-.262-2.475-.405-1.464-.27-2.78-1.077-4.074-1.842-.867-.52-1.481-1.493-2.475-1.795-.698-.222-1.508-.046-2.227-.104a3.27 3.27 0 0 0-2.37.592.098.098 0 0 0-.127 0 11.423 11.423 0 0 0-2.23 2.495c-.723 1.077-.723 1.752-.799 2.966-.108 1.482-.553 2.243-1.518 3.302-.661.718-.972 1.185-.983 2.204-.018 1.878.958 3.009.033 4.904-.178.36-.46.38-.362.883.148.718.998.883 1.58 1.023.238.058.47.105.69.148-.05.779-.141 1.554-.224 2.333a6.328 6.328 0 0 0-1.53-1.343c-.986-.527-2.42-.358-3.364-1.008-1.601-1.077 1.128-3.827 1.507-4.847.38-1.02.188-1.92.069-2.918a6.683 6.683 0 0 1 .12-2.919c.27-.804.86-1.403 1.203-2.154.51-1.134.921-2.405 1.377-3.564.455-1.16.918-3.055 1.904-4.183.134-.132.268-.262.405-.387.15-.123.314-.228.488-.313a.126.126 0 0 0 .069-.161 3.3 3.3 0 0 1 1.521-.69c1.468-.211 2.62.273 3.976.783.586.223 1.178.456 1.782.632 1.124.334 1.64.93 2.476 1.777.618.625 1.084 1.113 1.919 1.436a8.815 8.815 0 0 0 2.815.463c1.023.05 1.847-.047 2.812.449.336.172.604.449.958.603.173.07.354.121.538.15-.021.291-.014.586.004.877Zm-21.494 8.975c-.05-.984.29-1.949.95-2.685.644-.83.763-1.558.81-2.592.058-1.242-.27-2.355.304-3.522a8.054 8.054 0 0 1 1.196-1.669.088.088 0 0 0 .036-.018c.575-.384 1.045-.933 1.681-1.213.94-.413 1.49-.14 2.418-.043 1.15.122 1.652.129 2.57 1.005a16.29 16.29 0 0 0 1.904 1.58c.618.43 1.197.98 1.912 1.249.792.301 1.471.111 2.292.1 1.03 0 1.944.162 2.703.898.76.736.922 1.795 1.298 2.775-.112.635-.069 1.256-.29 1.931-.4 1.235-1.39 2.93-2.717 3.31-1.446.413-2.574.718-3.441 2.086-.614.958-1.413 1.708-2.05 2.642-.636.933-.672 1.827-1.781 2.455-.965.542-2.346 1.404-3.405 1.239-1.214-.187-1.326-1.145-1.952-1.964a7.922 7.922 0 0 0-1.604-1.615 4.238 4.238 0 0 0-1.309-.614 2.55 2.55 0 0 0-.574-.054v-.126c0-.154-.242-.154-.246 0v.126c-.35.036-.702-.02-1.023-.162-.95-.631.231-1.191.474-1.877.386-1.088-.098-2.19-.156-3.242ZM7.47 36.593c-.152-1.364-1.037-2.72-.838-4.096.224-1.55.661-3.14.835-4.731a5.53 5.53 0 0 0 1.713-.255 8.71 8.71 0 0 1-.293 1.213c-.21.718-.387 1.476-.582 2.215a29.842 29.842 0 0 0-.943 4.258c0 .061.09.072.105 0 .43-1.795.932-3.59 1.391-5.385.195-.765.524-1.587.582-2.39.134-.055.264-.105.39-.17a.422.422 0 0 0 .127-.11c-.687 2.512-1.334 4.835-.969 7.516a4.044 4.044 0 0 0 1.507 2.575c.362.206.757.349 1.168.423 1.568.481 2.248.765 3.343 2.079a8.395 8.395 0 0 0 2.425 2.067c.502.31.86.758 1.373 1.06.77.459 1.678.638 2.455 1.098.78.515 1.623.93 2.508 1.235 1.084.34 2.067 1.105 3.253.883 1.265-.244 2.53-.998 3.722-1.48.47-.235.92-.506 1.348-.81 1.02-.607 1.562-.428 2.53-.826 2.306-.948 2.06-3.5 2.585-5.557.816.524 1.677 1.052 2.53 1.565a11.79 11.79 0 0 0-.687 2c-.3 1.156-.803 1.436-1.807 2.103-.795.52-1.576 1.052-2.382 1.551-1.728 1.077-3.224 2.333-5.187 2.969-1.37.441-2.613.323-3.935.082-.553-.359-1.164-.434-1.89-.631-1.24-.338-2.62-.718-3.803-1.146-1.11-.405-1.662-1.436-2.75-1.91-1.088-.473-1.612-.337-2.657-1.076-.47-.338-.914-.675-1.395-1.002-.752-.51-1.446-1.436-2.31-1.745-1-.359-2.439.237-3.252-.682-.477-.57-.123-2.24-.199-2.9l-.01.01ZM4.03 23.936l.202.06.491.094c-.068.28-.133.564-.206.847-.126-.04-.256-.082-.386-.118.025.19.047.38.054.574a4.022 4.022 0 0 0-.875-.133c-.48-.018-1.044.09-1.583.115.152-.524.304-1.052.434-1.58.285-1.173.52-2.38.78-3.59.492.216.98.414 1.428.6a13.49 13.49 0 0 0-.361 2.61c0 .17.01.34.032.51l-.01.01Zm.751-.087a3.304 3.304 0 0 1-.152-.886 7.929 7.929 0 0 1 .235-1.946l.467.172c-.134.88-.326 1.767-.539 2.65l-.01.01Zm.842-2.566c.496.15 1.005.276 1.518.39-.018.184-.032.36-.047.557 0-.075-.021-.147-.04-.222-.036-.172-.3-.1-.267.075.253 1.224-.076 2.42-.27 3.63l-.023.143a6.986 6.986 0 0 1-1.333-.19v-.312a1.598 1.598 0 0 0-.033-.23c-.097-.036-.199-.061-.3-.093.307-1.257.607-2.503.806-3.76l-.01.012ZM.188 23.709c.213 0 .426-.018.643-.021a4.258 4.258 0 0 1-.242-1.246 9.152 9.152 0 0 1 .535-3.137c.503.291 1.021.555 1.554.79-.362 1.554-.647 3.123-1.084 4.641l-.185.64h-.213v-.12a3.962 3.962 0 0 0-.206-1.019c-.268 0-.539-.025-.81-.025a.256.256 0 0 1-.177-.076.25.25 0 0 1 .185-.427Zm1.066 2.255c-.04.14-.08.276-.116.416.022-.15.04-.298.054-.448l.062.032Zm-.48 1.867c-.099.434-.182.868-.24 1.314-.086.642-.267 1.597.362 2.038.043.033.112-.032.076-.075-.578-.75-.094-2.323.083-3.145.137-.628.307-1.245.488-1.86.8.331 1.619.61 2.454.837-.477 1.77-1.475 3.357-1.366 5.302.068 1.243.773 2.233.744 3.511-.018.991-.22 1.96.05 2.937.536 1.899 1.855 2.43 3.319 3.504.021.018.048.029.076.032.038.042.079.082.123.118.502.431 1.084.758 1.593 1.203.839.743 1.533 1.637 2.487 2.244.432.242.878.462 1.334.657.246 1.355.347 2.733.3 4.11a5.807 5.807 0 0 1-.647-.334 12.916 12.916 0 0 0-1.276-.696c-.094-.984-.343-1.896-.52-2.872-.033-.172-.297-.1-.268.072.155.894.343 1.748.455 2.638a23.19 23.19 0 0 1-2.06-1.077l-.047-.028a19.069 19.069 0 0 0-.759-4.003c-.047-.158-.3-.094-.25.068.37 1.21.592 2.458.662 3.72-.455-.334-.89-.693-1.3-1.078a12.154 12.154 0 0 0-.557-4.143c-.055-.143-.286-.082-.232.061a11.63 11.63 0 0 1 .535 3.867 13.589 13.589 0 0 0-1.727-1.382l-.282-.19c.01-1.28-.146-2.555-.463-3.795a.123.123 0 0 0-.235.065c.293 1.158.439 2.348.434 3.543a11.35 11.35 0 0 0-1.316-.858l-.097-.054c-.38-.305-.788-.574-1.175-.872 0-.94-.018-1.878.04-2.811.065-1.03.25-2.183-.304-3.116a.134.134 0 0 0-.231.136c.614 1.06.238 2.474.21 3.626 0 .635-.022 1.27-.022 1.906-.072-.06-.145-.118-.213-.183-1.023-.987-1.4-2.441-1.345-3.812.043-1.077.29-2.097.109-3.17-.268-1.573-.496-2.872-.17-4.459.238-1.181.78-2.33 1.167-3.504v.008ZM14.04 47.618c.13 1.177.332 2.362.444 3.543-.534-.158-1.084-.309-1.579-.506a20.712 20.712 0 0 0-.293-4.067c.517.312.936.7 1.428 1.03Zm-1.49 6.731c-.53-.154-1.062-.309-1.568-.506 0-.291-.021-.582-.029-.876a50.886 50.886 0 0 0-.126-2.194c.257.201.51.406.784.59.314.204.651.372 1.005.498 0 .546-.033 1.095-.043 1.644l-.026.844h.004Zm-10.994-9.13v-1.263c.47.33.976.654 1.497 1.038a.207.207 0 0 0 .09.036c.053.057.1.104.141.14.271.23.56.434.853.639 0 1.35-.087 2.71 0 4.063a20.16 20.16 0 0 0-2.45-2.01c-.033 0-.066-.043-.098-.065-.04-.857-.036-1.72-.036-2.577h.003Zm2.794 3.59c0-.94.025-1.877.033-2.81.264.18.517.376.759.585.43.38.827.793 1.236 1.2-.033 1.058-.101 2.11-.098 3.104 0 .194 0 .385.022.575a8.908 8.908 0 0 1-.51-.295 10.616 10.616 0 0 1-1.377-1.026c-.036-.45-.065-.89-.068-1.336l.003.004Zm2.223 1.57c0-.758.036-1.548.058-2.345.42.426.88.808 1.377 1.142.036 1.077.137 2.154.191 3.23-.524-.254-1.055-.502-1.572-.77-.032-.421-.058-.837-.058-1.261l.004.004Zm1.92 1.493c-.04-.833-.073-1.658-.124-2.484.456.244.94.427 1.399.671.253.137.494.293.723.467.061.98.119 1.96.126 2.943v.223a4.944 4.944 0 0 1-.683-.359 16.465 16.465 0 0 0-1.417-.772c-.01-.233-.018-.463-.029-.693l.004.004Zm7.907 3.762v.47a12.86 12.86 0 0 0-1.597-.893c.021-.883.068-1.77.054-2.657.094.036.188.065.282.104.39.154.806.27 1.21.399.044.847.058 1.694.047 2.574l.004.003Zm-2.027-8.974a20.118 20.118 0 0 0-1.974-1.02c0-.057-.029-.111-.047-.165a.118.118 0 0 0-.128-.09.119.119 0 0 0-.107.115c-.296-.147-.589-.302-.875-.477-1.142-.697-1.99-1.774-3.122-2.495-.495-.313-1.084-.805-1.59-1.052l-.084-.047c-.473-.384-.997-.69-1.445-1.12a4.26 4.26 0 0 1-1.146-3.249c.036-.915.25-1.795.094-2.703-.228-1.343-.423-2.441-.145-3.802.224-1.109.76-2.179 1.085-3.284a7.3 7.3 0 0 0 1.406.394v.04c-.157.768-.25 1.547-.279 2.33-.267 1.648-.65 3.284-.827 4.94 0 .064.094.075.112 0 .25-.88.455-1.796.64-2.69 0 1.867 1.084 3.623.86 5.504-.062.578-.481 1.077-.243 1.64.21.492 1.052.887 1.493 1.077.799.338 1.572.166 2.4.36 1.005.226 1.963 1.292 2.84 1.902.88.61 1.544 1.257 2.53 1.727a6.93 6.93 0 0 1 2.09 1.518c.363.432.815.781 1.326 1.023 1.768.654 3.777.647 5.635 1.03 2.938 1.738 6.375-.107 8.837-1.812 1.807-1.246 3.784-2.086 5.652-3.166 1.171-.672 1.294-2.079 1.68-3.314l1.956 1.178a16.65 16.65 0 0 0-1.232 1.938 7.152 7.152 0 0 1-2.447 2.764c-.998.643-2.125 1.045-3.061 1.795-.828.657-1.746 1.138-2.624 1.727a10.56 10.56 0 0 1-1.305.905 7.612 7.612 0 0 1-2.422.47 15.47 15.47 0 0 0-2.913.384c-1.445.359-2.851.596-4.337.334-1.192-.212-1.908-.973-2.653-1.845-.603-.718-1.286-1.01-2.121-1.436-1.139-.585-2.465-.69-3.513-1.346l.004.017Zm40.06-23.557a8.987 8.987 0 0 0 .27 2.29c-.209.908-.404 1.816-.643 2.718-.162.628-.361 1.249-.567 1.863a2.998 2.998 0 0 0-.159-.514c-.163-.384-.34-.757-.517-1.13.152-.446.29-.894.43-1.336.398-1.274.95-2.567 1.182-3.91l.004.019Zm-.93-10.838c.211.205.408.423.59.653.835 1.077 1.117 2.359 1.25 3.694.109 1.049-.581 2.592-.542 3.795a12.984 12.984 0 0 0-.289 1.554.145.145 0 0 0-.253.09c-.032 1.795-.889 3.658-1.445 5.342-.062.186-.127.359-.188.552a26.281 26.281 0 0 1-.745-1.647 47.407 47.407 0 0 0 1.674-4.93c.046-.154-.196-.222-.246-.067-.46 1.49-.879 2.994-1.446 4.44-.029.076-.061.151-.094.223-.061-.169-.123-.338-.177-.513-.571-1.795-.044-3.379.202-5.16a.323.323 0 0 0-.1-.29c.242-.669.388-1.369.433-2.079 0-.718.163-1.672-.047-2.362a5.478 5.478 0 0 0-1.146-1.734c1.084-.315 1.778-.915 2.566-1.58l.004.019ZM-2.71 9.576c.238-1.185.885-1.935 1.923-2.588.856-.542 1.807-.908 2.685-1.436l.094-.065c-.134.19-.271.384-.394.578C.838 7.261.112 8.417-.713 9.57c-.823 1.152-1.543 2.466-2.349 3.676-.38.57-.759 1.274-1.207 1.877.217-1.005.438-2.006.723-2.983.257-.897.65-1.676.831-2.58l.004.017ZM-7.243 24.97c.112-1.051.668-1.938.882-2.965.227-1.077.791-1.985 1.13-3.037.34-1.052.597-2.186.84-3.299.296-.373.565-.766.805-1.177.857-1.275 1.695-2.56 2.505-3.867.763-1.235 1.695-2.34 2.41-3.608.362-.62.742-1.202 1.143-1.794l.061-.094c.846-.574 1.652-1.206 2.48-1.795A9.015 9.015 0 0 0 7.18 1.388C7.88.44 8.265-.583 9.108-1.434c1.687-1.723 3.198-3.4 5.594-4.093 1.2-.359 2.4-.718 3.615-1.026 1.008-.248 1.937-.392 2.826-.955a.764.764 0 0 0 .188-.165c.78-.173 1.554-.36 2.28-.524 2.212-.467 3.976-1.724 5.982-2.682 1.084-.52 2.284-1.099 3.397-.316a10.17 10.17 0 0 1 1.92 1.702c1.319 1.576 2.645 2.965 4.568 3.816 1.807.8 3.994 1.077 5.942 1.306 1.496.183 3.104.747 4.572 1.185 1.605.481 3.47 1.526 4.41 2.937-.189.359-.362.718-.525 1.03-.307.578-.582 1.17-.842 1.766a2.508 2.508 0 0 0-.361-.718c-.178.36-.362.718-.528 1.077.115.359.148.75.246 1.13a28.229 28.229 0 0 1-.936 1.975c-.199.37-.416.73-.651 1.077-.058-.133-.12-.269-.177-.409-.022-.05-.04-.1-.058-.147l-.188.492c-.105.29-.206.581-.31.88.021.046.035.1.057.146l-.206.284a30.106 30.106 0 0 1-1.984 4.91c.04.093.093.18.155.26a1.721 1.721 0 0 0 1.446.552c.268.243.516.507.74.79.724.908.951 2.01 1.067 3.148.09.894-.495 2.212-.462 3.231-.108.434-.19.874-.246 1.318-.68 1.353-1.269 2.75-1.97 4.089-.199.359-.383.775-.578 1.17a9.208 9.208 0 0 1-.232-1.289c-.227-2.305.702-4.484.944-6.738a.357.357 0 0 0-.232-.361.362.362 0 0 0-.151-.023 4.602 4.602 0 0 0-.242-2.89 7.414 7.414 0 0 0-1.208-2.007c-.235 0-.477-.158-.361-.441-.56-.64-1.168-1.243-1.728-1.856.253-1.483.535-2.966.745-4.459.18.105.34.243.47.406.292.391.27.865.4 1.324.204.813.529 1.59.962 2.309.141-.36.282-.718.427-1.077-.203-.36-.362-.75-.553-1.185-.26-.6-.26-1.396-.723-1.895a2.892 2.892 0 0 0-.897-.586 25.52 25.52 0 0 0 .163-2.136v-1.02a5.385 5.385 0 0 1 1.843.277 3.1 3.1 0 0 1 1.468.898c.31.416.322.912.434 1.403.097-.24.195-.48.289-.718.094-.236.17-.427.256-.65a1.958 1.958 0 0 0-.361-.638c-.499-.535-1.55-.898-2.216-1.163a6.58 6.58 0 0 0-1.608-.36c.06-.328.183-.642.361-.926.084-.129-.123-.244-.202-.118a2.86 2.86 0 0 0-.394 1.016 12.306 12.306 0 0 1-.683-.086 11.794 11.794 0 0 1-2.794-.675c-.932-.36-1.738-.998-2.667-1.35-.929-.352-1.713-.083-2.642-.05-1.327.05-2.769-.36-3.484-1.512-.575-.915-.98-1.751-1.728-2.552-1.388-1.49-2.208-1.493-4.116-.74-.97.381-1.59 1.135-2.379 1.666a6.256 6.256 0 0 1-.162-.764c-.05-.36-.604-.255-.597.079.008.333.026.718.047 1.077-1.257.484-2.71.075-4.033.23A9.7 9.7 0 0 0 17.062-.67h-.04c-1.882.847-3.346 1.274-4.22 3.302-.702 1.637-1.053 3.04-2.697 3.974a18.808 18.808 0 0 0-2.79 1.813c-1.616 1.332-3.199 2.287-4.059 4.247-.513 1.181-.52 2.438-1.135 3.59-.231.438-.502.858-.762 1.278a60.563 60.563 0 0 1 2.562-6.681c.072-.158-.159-.294-.235-.136A63.47 63.47 0 0 0 .77 18.22l-.072-.072a3.213 3.213 0 0 1-.264-.187c-.34-.27-.824.18-.488.485.19.17.39.329.6.474-.177.549-.361 1.076-.513 1.644a56.348 56.348 0 0 0-1.29 5.144c-.203.984-.875 2.129-.286 3.055a.055.055 0 0 0 .073.029.055.055 0 0 0 .029-.072c-.217-.66 0-1.138.202-1.763.22-.693.332-1.436.484-2.132.195-.916.427-1.817.676-2.71-.029.29-.047.581-.054.865-.033 1.077.322 2.003.17 3.076-.362 2.513-1.966 4.606-1.807 7.262.08 1.458.903 2.617.874 4.118-.021 1.077-.22 2.118 0 3.166v5.522a14.355 14.355 0 0 1-1.536-1.2.442.442 0 0 1-.054-.06v-1.077c-.022-1.436.141-2.793.22-4.211.08-1.418 0-2.922-.028-4.373a.125.125 0 0 0-.127-.126.125.125 0 0 0-.127.126c0 1.436.044 2.926-.05 4.373-.047.718-.202 1.436-.246 2.154-.043.718 0 1.475 0 2.215v.513a5.855 5.855 0 0 1-1.102-3.838c.047-1.21.329-2.365.123-3.59-.026-.14-.047-.28-.073-.42.189-1.106.318-2.222.387-3.342a.118.118 0 0 0-.12-.118.12.12 0 0 0-.118.118 17.317 17.317 0 0 1-.297 2.398 10.17 10.17 0 0 1 .03-3.665c.465-2.287 1.93-4.455 1.806-6.871a6.395 6.395 0 0 0-.361-1.605.114.114 0 0 0-.054-.176l-.076-.255c.025-.075.05-.15.068-.222a15.02 15.02 0 0 1 .994-2.513c.647-1.375 1.186-2.782 1.764-4.186.68-1.651 1.446-3.26 2.241-4.86.43-.866.802-1.752 1.171-2.639a5.79 5.79 0 0 0 1.023-.61c.932-.74 1.807-1.48 2.815-2.13 2.01-1.302 2.69-2.634 3.593-4.82.412-.998.766-2.003 1.446-2.847.29-.343.63-.64 1.012-.88a.112.112 0 0 0 .148.054c1.594-.596 3.303-1.662 4.948-1.927 1.904-.31 4.214.308 5.996-.496.95-.427 1.445-1.289 2.302-1.824a6.169 6.169 0 0 1 2.212-.865c1.243-.136 2.266.589 3.014 1.565 1.084 1.404 1.345 3.4 3.134 4.118a8.952 8.952 0 0 0 2.92.542c.455 0 .871-.15 1.32-.172 1.047-.054 1.683.542 2.424 1.163C43.352.813 44.993.982 46.844 1.014c1.113 0 2.374-.086 3.408.313a5.15 5.15 0 0 1 1.261.62c.134-.269.279-.53.43-.786a13.62 13.62 0 0 0-1.846-.818c-.886-.36-1.923-.388-2.852-.531a13.317 13.317 0 0 1-3.152-.758c-1.055-.423-1.962-1.127-3.014-1.526-1.052-.398-1.93-.093-2.978-.053-1.5.053-3.126-.417-3.932-1.71-.647-1.03-1.106-1.974-1.948-2.871-1.565-1.684-2.494-1.684-4.645-.837-1.373.543-2.114 1.745-3.404 2.28-1.446.592-3.116.111-4.637.287-1.363.171-2.68.595-3.886 1.25h-.043c-2.129.958-3.78 1.435-4.764 3.733-.791 1.842-1.189 3.428-3.043 4.48a21.267 21.267 0 0 0-3.148 2.046l-.264.216a.116.116 0 0 0-.184.043l-.065.158c-1.084.85-2.11 1.608-2.946 2.592.842-1.35 2.22-3.615 1.948-3.723-.09-.036-.155.115-.068.158.032.018-1.338 2.193-1.493 2.43a45.797 45.797 0 0 0-2.982 5.242c-.817 1.697-1.492 3.46-2.324 5.155-.112.23-.502.936-.477 1.382-.6 1.105-1.059 2.286-1.608 3.417a42.46 42.46 0 0 0-1.706 3.974c-.094.259-.192.517-.282.783.247-.99.432-1.995.553-3.009l.004.018Zm4.698 24.623c0-.43.03-.865.033-1.295v-2.492c.48.384 1.015.718 1.576 1.113-.019 1.124-.044 2.247 0 3.367a23.361 23.361 0 0 0-1.627-.71l.018.017Zm-4.04-7.955-.12.769a9.043 9.043 0 0 0-.766-1.774 64.11 64.11 0 0 1 1.937-8.472c.463-1.583 1.005-3.145 1.536-4.71.2-.592.322-1.238.485-1.87-.003.17-.016.34-.04.51-.398 2.846-2.22 5.198-2.053 8.195.036.488.128.97.275 1.436-.506 1.95-.962 3.899-1.273 5.898l.018.018Zm3.809-20.595c-.043.108-.09.212-.134.32a9.882 9.882 0 0 1 1.222-4.283c.593-1.02 1.3-1.978 1.655-3.116.409-1.3.398-2.746 1.287-3.87.437-.553 1.203-.89 1.948-1.242l-.022.054a74.665 74.665 0 0 1-1.265 2.592A68.922 68.922 0 0 0-.412 16.59c-.68 1.658-1.446 3.274-2.13 4.936-.13.33-.234.66-.332.998A3.63 3.63 0 0 1-2.928 22v-.076c.105-.262.213-.52.325-.779.037-.136-.137-.24-.191-.122l.018.018Zm.495-4.33a3.814 3.814 0 0 0-.817 1.193 9.81 9.81 0 0 1-.477.825c.452-1.123 1.182-2.549 1.24-2.678a60.33 60.33 0 0 1 2.237-4.706c-.437 1.217-.506 2.491-1.135 3.676-.303.574-.668 1.113-1.008 1.666l-.04.025Zm-6.578 20.639c-.285-1.935 0-4.057.329-6.035v.05a.043.043 0 0 0 .083 0c.105-1.482.65-2.871 1.175-4.264.524-1.393 1.142-2.725 1.782-4.057.47-.98.867-1.996 1.37-2.958a.363.363 0 0 0 .195.086c.057 0 .108-.071.043-.1-.065-.029-.076-.172-.04-.36.253-.43.553-.832.792-1.27l.072-.144c-.033.101-.069.194-.098.295a17.876 17.876 0 0 0-.607 4.006 5.56 5.56 0 0 0 .026.697c-.213.492-.454.971-.723 1.436-.723 1.21-1.005 2.606-1.62 3.866-1.196 2.445-2.53 5.496-2.222 8.278 0 .054.097.079.108 0 .213-1.536.362-3.015.817-4.505a32.92 32.92 0 0 1 1.691-4.057c.532-1.141.77-2.394 1.417-3.49.213-.36.404-.733.575-1.116.047.399.105.79.14 1.189-.173.556-.292 1.138-.447 1.701-.485 1.734-1.19 3.41-1.71 5.137-.52 1.727-.968 3.59-1.37 5.407-.224 1.012-.47 2.035-.618 3.07-.502-.916-1.008-1.832-1.16-2.862Zm2.313 9.19c-.21-.994.069-2.093 0-3.134.163-1.174.333-2.348.539-3.514.217-1.225.517-2.43.817-3.637a7.97 7.97 0 0 1 .545 2.657c-.018.893-.144 1.773-.112 2.652v.133a33.551 33.551 0 0 0 .185 6.997c-.904-.463-1.757-1.135-1.988-2.154h.014Zm2.248 2.29c0-1.034-.159-2.1-.173-3.13 0-.887-.036-1.777-.022-2.664.295.95.854 1.8 1.612 2.449v3.955c-.423-.172-.846-.358-1.254-.534l-.163-.076Zm3.694 1.58a.175.175 0 0 1 0-.043c-.065-1.077-.047-2.172-.032-3.256.151.104.303.212.459.326a.21.21 0 0 0 .1.04c.062.065.116.118.16.158.361.309.759.578 1.15.854 0 1.023.032 2.054.115 3.077A10.779 10.779 0 0 0-.604 50.41Zm4.464 3.213a16.48 16.48 0 0 0-2.1-1.741c-.05-.485-.098-.966-.127-1.436a66.92 66.92 0 0 1-.061-1.695c.213.155.423.316.618.489.701.62 1.33 1.32 2.013 1.953.076 1.023.166 2.046.278 3.058-.199-.201-.408-.388-.621-.628Zm.947.9a57.84 57.84 0 0 1-.174-1.927c-.029-.377-.065-.75-.101-1.123.298.262.616.502.95.718.296.182.604.342.922.48.092.726.143 1.456.152 2.187 0 .326-.025.65-.025.973l-.5-.36c-.458-.333-.849-.628-1.224-.947Zm2.034 1.591c-.018-.502.033-1.034 0-1.543a27.756 27.756 0 0 0-.126-1.734c.231.104.459.2.683.32.29.177.565.376.824.595 0 1.095.13 2.265.21 3.342-.547-.3-1.078-.626-1.59-.98Zm6.282 3.109a2.528 2.528 0 0 1-.033-.438 7.647 7.647 0 0 0-.104-1.601 10.094 10.094 0 0 1-.134-1.321c.21.068.42.136.618.215.336.137.687.24 1.037.36v.326c.058 1.055.163 2.082.18 3.127a35.273 35.273 0 0 0-1.564-.668Zm3.614 1.63c0-.384.026-.768.026-1.152v-2.154c.307.29.581.628.936 1.015.057.065.119.126.18.187 0 .94 0 1.881.026 2.822-.188-.126-.362-.248-.564-.36-.203-.11-.409-.247-.622-.358h.018Zm1.446.894v-.492c0-.743.022-1.483.025-2.222a5.612 5.612 0 0 0 1.616.933c.054.619.054 1.241 0 1.86-.004.378.017.755.061 1.13l-.155-.11c-.52-.345-1.041-.726-1.569-1.085l.022-.014Zm1.977 1.382a6.757 6.757 0 0 1-.047-.718c.066-.776.082-1.556.047-2.334l.105.036c.045.382.07.765.072 1.15 0 .66-.17 1.302.098 1.93l-.134.03-.141-.094Zm.535.018c-.445-.133-.101-2.036-.13-2.405 0-.19-.033-.377-.055-.564a7.389 7.389 0 0 0 1.948.226c.07.474.138.948.189 1.436.043.377.072.754.108 1.13a9.88 9.88 0 0 0-1.49.073c-.199.023-.396.058-.592.104h.022Zm4.149-1.149c-.09.359-.297.718-.394 1.077a19.715 19.715 0 0 0-1.518-.13c-.022-.426-.029-.857-.065-1.288-.036-.43-.087-.85-.145-1.274.464-.02.926-.066 1.385-.137.047-.273.108-.538.173-.808-.557.078-1.118.117-1.68.119a62.535 62.535 0 0 1-.167-1.152c-.09-.65-.148-1.314-.199-1.978.708.068 1.422.05 2.126-.058.118 1.172.308 2.336.567 3.486a.083.083 0 0 0 .094.068c-.025.057-.047.118-.072.172l.18-.032c-.122.646-.155 1.34-.307 1.935h.022Zm4.474-10.192c-.14-.7-1.04-.66-1.391-.18a11.552 11.552 0 0 0-1.424 2.661 40.09 40.09 0 0 1-.43 1.964 25.654 25.654 0 0 1-.962 3.471c-.159-1.124-.38-2.24-.542-3.367.206-.029.409-.065.615-.104.057-.234.112-.467.166-.718-.293.05-.586.097-.878.129a10.08 10.08 0 0 0-.788-2.832c-.065-.14-.275-.019-.21.121.386.871.649 1.79.78 2.732a9.608 9.608 0 0 1-2.081 0 18.731 18.731 0 0 0-.64-4.006c-.047-.154-.293-.09-.245.065.342 1.28.543 2.593.6 3.916l-.185-.028a3.838 3.838 0 0 1-1.626-.7c0-.927-.235-1.795-.282-2.729 0-.115-.188-.115-.18 0 .032.862.194 1.695.23 2.55a9.67 9.67 0 0 1-1.254-1.286 4.37 4.37 0 0 0-.621-.596c-.022-.28-.04-.556-.062-.833-.061-.822-.148-1.712-.748-2.333-.137-.14-.361.072-.213.212.64.667.676 1.762.697 2.717a9.322 9.322 0 0 0-1.008-.574 10.792 10.792 0 0 1-.163-1.314c-.021-.79.062-1.547-.17-2.258.252.069.5.151.741.247.524.209 1.103.33 1.62.546.722.312 1.033.736 1.56 1.321a4.2 4.2 0 0 0 1.949 1.181c1.337.399 2.653.19 3.976-.09.021-.09.043-.183.068-.272a.248.248 0 0 1 .272-.174.25.25 0 0 1 .216.238v.086a13.82 13.82 0 0 1 2.79-.416c1.02 0 2.23.111 3.21-.233.98-.345 1.944-1.124 2.848-1.655.904-.532 1.753-1.267 2.696-1.842.944-.574 1.984-1.123 2.736-2.01.705-.83 1.056-1.831 1.583-2.764.28-.486.593-.953.936-1.397.871.517 1.75 1.03 2.631 1.533-.402.512-.78 1.036-1.134 1.572-.051-.337-.094-.67-.127-1.008 0-.14-.231-.144-.217 0 .033.434.094.865.16 1.296-.247.384-.481.771-.695 1.163-.265.501-.57.982-.91 1.436a7.91 7.91 0 0 0-.503-1.558c-.069-.155-.293-.022-.224.133a8.27 8.27 0 0 1 .517 1.687 7.574 7.574 0 0 1-1.746 1.558c-1.17.75-2.497 1.224-3.592 2.096a31.733 31.733 0 0 1-2.697 1.795 8.823 8.823 0 0 1-.188-.97c-.021-.168-.289-.171-.267 0 .051.377.126.75.224 1.117l-.152.097c-.484.38-.996.721-1.532 1.023-.784.36-1.96.492-2.837.557l-.297.018c-.216-.988-.415-1.982-.621-2.99h.021Zm1.587 6.642a35.474 35.474 0 0 1-.806-2.955c.88.044 1.76.017 2.635-.082.191.868.361 1.737.556 2.606-.783.234-1.59.378-2.407.43h.022Zm.997 4.602a7.104 7.104 0 0 1-.303-1.102c-.148-.89-.239-1.777-.452-2.65.8.034 1.6-.014 2.39-.143.126.581.256 1.16.393 1.737.087.36.16.718.235 1.077-.275.13-.542.266-.81.413-.472.261-.966.484-1.474.668h.021Zm4.844-2.118c-.156-.916-.416-1.817-.593-2.728 0-.072-.025-.144-.04-.22.64-.405 1.265-.843 1.869-1.199.123-.071.235-.15.361-.226.268 1.16.528 2.32.828 3.468-.828.33-1.638.614-2.447.905h.022Zm2.707-1.023h-.04c-.177-.571-.361-1.142-.492-1.691-.13-.55-.26-1.2-.39-1.795.994-.653 1.905-1.393 2.924-2.025.043.36.083.718.116 1.077.094 1.049.072 2.122.133 3.18-.788.385-1.507.92-2.273 1.254h.022Zm4.568-3.055a2.955 2.955 0 0 1-1.32 1.436c-.222.05-.44.12-.65.208a33.042 33.042 0 0 0-.235-3.364c-.029-.301-.065-.603-.1-.904a25.74 25.74 0 0 0 2.25-1.436c.055.24.106.484.145.718.1.954.134 1.913.105 2.872-.077.155-.15.312-.217.47h.022Zm.427-1.016a10.76 10.76 0 0 0 0-2.046c-.053-.4-.126-.797-.22-1.189a7.58 7.58 0 0 0 .95-.915c.094-.115.184-.23.27-.36.051.859.11 1.717.196 2.571-.12.137-.239.27-.361.413-.35.47-.638.983-.857 1.526h.022Zm1.463-2.24a8.464 8.464 0 0 1-.072-.657 59.48 59.48 0 0 0-.14-1.968c.606-.933 1.018-1.967 1.571-2.947.09-.161.188-.32.286-.48.036.358.069.717.105 1.076.087 1.033.118 2.07.094 3.105v.119l-.178.154c-.589.503-1.163 1.03-1.687 1.598h.021Zm2.125-2.05a29.76 29.76 0 0 0-.198-3.723c-.026-.215-.033-.427-.05-.642.51-.755 1.06-1.481 1.65-2.176.03.56.051 1.124.106 1.68.09.98.14 1.946.133 2.933 0 .208-.025.417-.036.625a12.61 12.61 0 0 1-1.626 1.303h.021Zm2.024-1.637a35.286 35.286 0 0 0-.256-3.748c-.047-.495-.069-.987-.098-1.472.253-.301.506-.596.756-.88.361-.416.722-.803 1.116-1.17.034.313.047.627.04.941-.025.757-.112 1.511-.173 2.265-.089.96-.118 1.926-.087 2.89-.434.41-.871.797-1.32 1.178l.023-.004Zm14.403-13.01c-.954 2.057-2.934 2.355-4.698 3.486-.566.427-1.087.908-1.558 1.436a7.888 7.888 0 0 1-2.53 1.615 3.043 3.043 0 0 0-.633.36c.106-.844.12-1.696.04-2.542a.149.149 0 0 0-.141-.14 1.117 1.117 0 0 0-.849.194.14.14 0 0 0-.049.192.14.14 0 0 0 .194.048c.856-.528.654 1.055.643 1.393-.011.337-.047.718-.083 1.052-1.142 1.001-1.72 2.7-2.635 3.852-.152.186-.307.359-.47.542.025-.959 0-1.928.087-2.872.1-1.03.112-2.066.032-3.098a13.573 13.573 0 0 1 2.577-1.867 30.362 30.362 0 0 0 4.074-2.61c2.067-1.64 4.181-4.667 3.04-7.355-.76-1.795-1.728-3.44-2.318-5.306-.755-2.391-.061-4.473.264-6.821a.447.447 0 0 0-.133-.388 9.85 9.85 0 0 0 .574-2.75c0-.965.217-2.21-.061-3.126-.279-.916-1.276-2.003-1.923-2.765-.061-.068-.126-.129-.192-.193.232-.148.463-.298.698-.438.434-.262.994-.489 1.496-.772.239.222.481.438.723.653.646.578 1.238 1.21 1.771 1.892.326.315.617.664.867 1.041.47.934.134 1.418-.31 2.237a8.923 8.923 0 0 0-1.045 5.162c.16 2.046.163 4.257.59 6.268.226.923.53 1.826.906 2.7.17.42.413.84.564 1.263.153.52.248 1.056.286 1.598.296 2.07 1.127 3.995.18 6.06h.022Z"/>
        <path d="M32.582 3.038c0-.208-.025-.42-.032-.628a.311.311 0 0 0-.34-.306.316.316 0 0 0-.16.058 7.065 7.065 0 0 0-.867-1.18C29.998-.29 29.297-.294 27.67.35a3.23 3.23 0 0 0-.574.305c.036.165.076.33.112.495.48-.29 1.01-.49 1.565-.589.94-.104 1.713.445 2.277 1.181.32.46.596.948.827 1.458-.057 1.199-.144 2.398-.213 3.59-.755-.022-1.518-.065-1.923-.736-.404-.671-.18-1.372-.87-1.885a1.88 1.88 0 0 0-1.121-.359c.094.514.18 1.023.26 1.537.114.096.215.207.3.33.105.281.195.568.271.858.647 1.36 1.807.88 3.047 1.034 0 .301-.029.603-.04.908-.025.883-.094 1.813-.09 2.736-.9-.941-1.272-2.014-2.707-2.223-.13 0-.246-.046-.362-.071.026.359.047.718.065 1.076.17-.027.344-.027.514 0 1.127.252 1.706 1.58 2.555 2.356.047.548.156 1.09.325 1.615a.359.359 0 0 0 .347.258.363.363 0 0 0 .347-.258c.029-.08.047-.162.072-.244-.151-1.727.026-3.479.109-5.206.029-.574.032-1.163.04-1.755-.047-.815-.102-1.63-.149-2.445.072.072.148.14.228.201a12.5 12.5 0 0 1 .108-.98 2.27 2.27 0 0 1-.332-.405c-.029-.015-.054-.054-.076-.094ZM25.199 35.556c1.565-.173 2.511-2.154 3.057-3.396.546-1.242 1.2-2.538 2.494-3.21.864-.448 1.728-.32 2.617-.585 1.059-.312 1.745-1.72 1.637-2.84-.134-1.37-1.77-2.074-2.891-2.47a12.604 12.604 0 0 1-4.204-2.24c-.723-.603-1.218-1.037-2.11-1.295-.474-.14-1.706-.69-2.306-.36-.43.227-.524.765-.705 1.228-1.106.826-1.186 1.63-1.2 3.116a5.546 5.546 0 0 1-.246 1.756c-.397 1.22-1.536 1.931-1.97 3.058-.607 1.57.904 3.558 1.782 4.71.994 1.282 2.162 2.714 4.045 2.528Zm-3.08-10.21c.264-1.583-.607-3.04.271-4.308a.15.15 0 0 0 .147.134.152.152 0 0 0 .07-.015c.535-.284.741-.876 1.247-1.113.506-.237 1.554.204 2.169.441 1.008.392 1.54 1.077 2.407 1.673.667.416 1.373.768 2.107 1.052.976.42 2.443.686 3.097 1.59.76 1.056.141 2.136-.914 2.617-.398.18-.78.148-1.16.327a8.265 8.265 0 0 0-1.515 1.077 9.71 9.71 0 0 0-1.637 1.601c-.448.625-.44 1.364-.784 2.043-.857 1.694-2.852 3.066-4.58 1.698-.834-.66-1.485-1.903-2.013-2.836-1.405-2.51.712-3.72 1.088-5.999v.018Z"/>
        <path d="M23.221 31.966a2.06 2.06 0 0 0 2.754-.266c.495-.51.788-1.224 1.175-1.813.596-.904 1.352-1.543 2.053-2.347.701-.805.976-1.652.452-2.603-.481-.869-1.72-1.562-2.588-1.978-.972-.47-1.88-.761-2.696-.119.05-.043 0-.129-.058-.09-.911.607-1.377 1.282-1.182 2.392.224 1.26.383 1.86-.141 2.958a3.88 3.88 0 0 0-.42 1.123c-.263 1.135-.39 2.082.651 2.743Zm.839-3.906c.484-1.508-1.124-3.683.036-4.961-.054.072.025.19.108.133 1.627-1.077 5.18 1.278 5.06 2.976-.068.894-1.033 1.472-1.543 2.1-.51.628-.846 1.4-1.32 2.071-.946 1.332-2.89 1.917-3.126-.219-.1-.833.564-1.404.785-2.085v-.015Z"/>
        <path d="M25.154 28.774a.804.804 0 0 0 1.067.38c.805-.33 1.084-1.457 1.26-2.197a.072.072 0 0 0-.043-.078.073.073 0 0 0-.086.024c-.286.402-.394.851-.636 1.271-.138.233-.452.74-.774.718-.694-.036-.412-.65-.336-.951a3.44 3.44 0 0 0 .177-1.095 3.043 3.043 0 0 0-.12-.56l-.108-.36a.756.756 0 0 1 .224-.764.22.22 0 0 0 .33.119.998.998 0 0 1 .842-.151c.48.082.39.718.39 1.098 0 .02.008.038.021.051a.073.073 0 0 0 .123-.05 2.072 2.072 0 0 0-.018-.988c-.09-.204-.303-.32-.47-.456-.199-.18-.453-.29-.722-.308a.526.526 0 0 0-.5.359 1.164 1.164 0 0 0-.657 1.008c.035.235.09.467.163.693a2.89 2.89 0 0 1-.101 1.303c-.113.3-.122.628-.026.934Z"/>
    </g>
    <mask id="b" fill="#fff">
        <path fill-rule="evenodd" clip-rule="evenodd" d="M0 0v51h51.346V15.093H48.46v-2.868h-2.884V9.356h-2.885V6.488h-2.885V0H0Z"/>
    </mask>
    <path d="M0 51h-3v3h3v-3ZM0 0v-3h-3v3h3Zm51.346 51v3h3v-3h-3Zm0-33.713h3v-1.915l-1.736-.806-1.264 2.72Zm0 0h-3V19.2l1.736.807 1.264-2.72Zm0-2.194h3v-3h-3v3Zm-2.885 0h-3v3h3v-3Zm0-2.868h3v-3h-3v3Zm-2.884 0h-3v3h3v-3Zm0-2.869h3v-3h-3v3Zm-2.885 0h-3v3h3v-3Zm0-2.868h3v-3h-3v3Zm-2.885 0h-3v3h3v-3Zm0-6.488h3v-3h-3v3ZM3 51V0h-6v51h6Zm48.346-3H0v6h51.346v-6Zm-3-27.562V51h6V20.438h-6Zm0-3.151v3.151h6v-3.151h-6Zm1.736 2.72 2.528-5.441-2.528 5.441Zm4.264-2.72v-2.194h-6v2.193h6Zm-3-5.194H48.46v6h2.885v-6Zm.115 3v-2.868h-6v2.868h6Zm-3-5.868h-2.884v6h2.884v-6Zm.116 3V9.356h-6v2.869h6Zm-3-5.869h-2.885v6h2.885v-6Zm.115 3V6.488h-6v2.868h6Zm-3-5.868h-2.885v6h2.885v-6Zm.115 3V0h-6v6.488h6Zm-3-9.488h-3.172v6h3.172v-6Zm-3.172 0H34.23v6h2.404v-6ZM34.23-3h-.193v6h.193v-6ZM0 3h34.038v-6H0v6Z" fill="#fff" mask="url(#b)"/>
    <path fill="#fff" d="M48.461 7.832h2.885v2.865h-2.885zM43.462 3.82h2.885v2.865h-2.885zM48.461 0h2.885v2.865h-2.885z"/>
    <path fill-rule="evenodd" clip-rule="evenodd" d="M60.054 10.279V2.937h2.938v7.342h-2.938Zm0 13.215V13.216h4.408v-1.469h1.469V1.468h-1.47V0h-7.346v23.494h2.939Zm20.863 0v-2.936H77.98V2.937h2.938V0h-8.815v2.937h2.938v17.62h-2.938v2.937h8.815Zm9.11 0V13.216h-2.939v10.278h2.939Zm5.877 0V13.216h-1.47v-1.469h-1.469V10.28h-1.469V8.81h-1.47V0h-2.938v10.279h1.47v1.468h1.469v1.469h1.47v1.468h1.468v8.81h2.939Zm0-13.215V0h-2.939v10.279h2.939Zm14.986 13.215v-2.936h-5.877v-7.342h4.408v-2.937h-4.408V2.937h5.877V0h-8.815v23.494h8.815Zm9.11 0V0h-2.939v23.494H120ZM64.86 51v-1.54h1.549V51h4.646v-1.54h1.55v-23.1h-3.099v21.56H66.41V26.36H63.31v21.56h-3.098V26.36h-3.098v23.1h1.55V51h6.195Zm17.347-3.08V29.44h3.098v18.48h-3.098ZM86.854 51v-1.54h1.549V27.9h-1.55v-1.54h-6.195v1.54H79.11v21.56h1.55V51h6.195Zm11.152-3.08V29.44h3.098v18.48h-3.098Zm4.646 3.08v-1.54h1.549V27.9h-1.549v-1.54h-6.195v1.54h-1.549v21.56h1.549V51h6.195Zm11.152-3.08V29.44h3.098v18.48h-3.098Zm4.647 3.08v-1.54H120V27.9h-1.549v-1.54h-7.744V51h7.744Z" fill="#fff"/>
</svg>
