<svg xmlns="http://www.w3.org/2000/svg" width="1200" height="1200" style="enable-background:new 0 0 1200 1200" xml:space="preserve">
    <style>
        .st1{fill:#ec9a29}.st2{fill:#fff}
    </style>
    <g id="Layer_2">
        <circle cx="600" cy="600" r="385" style="fill:#251b40"/>
        <g id="Слон_1_">
            <path class="st1" d="M716.65 521.38c-23.55-34.69-60.29-55.42-106.22-60.34-73.51-7.88-160.76 35.03-160.76 145.98l20.31.21c0-107.12 85.16-130.84 136.85-124.95 140.09 15.98 122.68 182.68 88.74 203.43-54.37 33.25-68.25-30.92-68.25-30.92h-19.9s-7.57 43.16-45.99 36.58c-25.14-4.3-32.32-31.06-34.27-40.5 56-29.89 53.76-96.25 53.76-96.25l-48.6-14.79s-31.74 51.03-29.7 98.92c-48.74 14.24-82.36-20.03-82.49-20.16l-14.91 13.83c.59.63 40.91 45.72 101.51 26.39 2.32 9.28 13.25 47.16 51.03 53.63 32.77 5.61 51.84-13.5 58.19-23.41 8.52 14.15 24.84 26.12 48.68 27.21.67.03 1.34.01 2.02.05 32.3 1.48 69.57-26.78 75.54-88.46 3.71-38.29-5.6-77.08-25.54-106.45zm-174 43.41 16.32 4.86c-1.1 7.57-4.29 38.8-34.29 58.15 1.36-27.53 11.83-50.74 17.97-63.01z"/>
            <path transform="rotate(-44.49 499.544 560.827)" class="st1" d="M487.46 551.4h24.16v18.88h-24.16z"/>
        </g>
        <path class="st2" d="M322.76 723.2c-.58-.96-.73-2.01-.45-3.12.28-1.12.9-1.96 1.86-2.54l53.2-31.99c.96-.58 2-.73 3.12-.45 1.11.28 1.96.9 2.54 1.86.58.96.72 1.99.43 3.08s-.92 1.92-1.89 2.5l-50.7 30.49 17.59 29.25c.51.86.65 1.76.42 2.7-.23.94-.78 1.67-1.64 2.19-.8.48-1.68.61-2.62.37-.94-.23-1.67-.78-2.19-1.64l-19.67-32.7zM356.64 775.43c-.68-.9-.95-1.89-.8-2.99.15-1.1.67-1.98 1.57-2.66l49.55-37.7c.9-.68 1.89-.95 2.99-.8 1.09.15 1.98.67 2.66 1.57.68.9.95 1.89.8 2.99-.15 1.1-.67 1.98-1.57 2.66l-49.55 37.7c-.9.68-1.89.95-2.99.8-1.09-.15-1.98-.67-2.66-1.57zM419.86 753.45c-.71-.61-1.11-1.39-1.21-2.34-.09-.95.18-1.8.84-2.56.61-.71 1.4-1.1 2.37-1.18.97-.07 1.81.2 2.52.81l18.42 15.83 18.42 15.83c.76.65 1.17 1.46 1.25 2.43.07.97-.2 1.81-.81 2.52-.65.76-1.45 1.16-2.4 1.21-.95.05-1.8-.25-2.56-.9l-15.29-13.14-38.69 45.01c-.73.85-1.66 1.31-2.79 1.37-1.13.06-2.12-.27-2.97-1.01-.85-.73-1.32-1.65-1.4-2.75-.08-1.1.24-2.08.97-2.93l38.69-45.01-15.36-13.19zM469.87 794.26c-.88-.32-1.53-.91-1.95-1.76-.42-.85-.46-1.75-.12-2.69.32-.88.92-1.53 1.8-1.94.88-.41 1.76-.46 2.64-.14l22.82 8.3 22.82 8.3c.94.34 1.61.95 2.03 1.83.41.88.46 1.76.14 2.64-.34.94-.95 1.6-1.82 1.98-.87.38-1.78.4-2.72.06l-18.95-6.89-20.28 55.78c-.38 1.06-1.09 1.81-2.12 2.27-1.03.46-2.08.49-3.13.11-1.06-.38-1.82-1.08-2.29-2.08s-.51-2.03-.12-3.09l20.28-55.78-19.03-6.9zM527.68 874.61c-1.11-.16-2.01-.7-2.7-1.63-.69-.92-.95-1.94-.79-3.05l8.99-61.42c.16-1.11.7-2.01 1.63-2.7.92-.68 1.94-.95 3.05-.78 1.11.16 2 .7 2.65 1.62.66.92.9 1.93.74 3.05l-8.57 58.54 33.77 4.95c.99.14 1.77.61 2.36 1.39.58.78.8 1.66.65 2.65-.14.93-.59 1.68-1.37 2.26-.78.58-1.67.8-2.65.65l-37.76-5.53zM592.63 881.35c-1.12.14-2.13-.14-3.04-.84-.91-.7-1.44-1.61-1.58-2.73l-3.41-26.41-.9-6.97-3.63-28.18c-.14-1.12.13-2.13.84-3.04.7-.91 1.61-1.44 2.73-1.58l37.85-4.88c.99-.13 1.87.11 2.64.7s1.22 1.39 1.35 2.38c.12.93-.12 1.78-.71 2.55-.59.77-1.39 1.22-2.38 1.35l-33.85 4.36 3.26 25.3 29.76-3.84c.99-.13 1.87.11 2.64.7s1.22 1.36 1.33 2.29c.13.99-.11 1.87-.7 2.64s-1.39 1.22-2.38 1.35l-29.76 3.84 3.03 23.53 33.85-4.36c.99-.13 1.87.11 2.64.7.77.6 1.22 1.39 1.35 2.38.12.93-.12 1.78-.71 2.55-.6.77-1.39 1.22-2.38 1.35l-37.84 4.86zM678.29 811.68c-1.01-.93-1.45-2.04-1.34-3.36.11-1.31.75-2.33 1.93-3.05.75-.46 1.57-.64 2.46-.57.89.08 1.67.43 2.34 1.04l40.28 37.14-14.42-51.63c-.33-1.26-.27-2.45.18-3.57.45-1.12 1.21-2 2.28-2.66 1.07-.65 2.21-.93 3.44-.84 1.23.09 2.3.59 3.22 1.49L758.12 822l-14.76-52.74c-.19-.91-.13-1.77.18-2.58s.86-1.46 1.66-1.95c1.12-.68 2.3-.79 3.55-.3 1.25.48 2.05 1.38 2.42 2.7l17 61.26c.35 1.18.31 2.34-.12 3.48-.44 1.15-1.19 2.04-2.25 2.7-1.07.65-2.22.92-3.47.8-1.24-.12-2.31-.6-3.2-1.45l-39.46-36.32 14.42 51.63c.35 1.18.3 2.35-.16 3.51a5.5 5.5 0 0 1-2.29 2.72c-1.07.65-2.22.92-3.47.8s-2.31-.6-3.2-1.45l-46.68-43.13zM811.27 798.26c-.73.85-1.67 1.33-2.82 1.41-1.15.09-2.15-.24-3-.97l-20.21-17.34-5.34-4.58-21.56-18.5c-.85-.73-1.32-1.67-1.41-2.82-.09-1.14.24-2.15.97-3l24.85-28.96c.65-.76 1.46-1.17 2.43-1.25.97-.07 1.83.21 2.59.87.71.61 1.1 1.4 1.18 2.37.07.97-.22 1.83-.87 2.59l-22.23 25.9 19.35 16.61 19.54-22.77c.65-.76 1.46-1.17 2.43-1.25.97-.07 1.81.19 2.52.81.76.65 1.18 1.46 1.25 2.43.07.97-.22 1.83-.87 2.59l-19.54 22.77 18 15.45 22.23-25.9c.65-.76 1.46-1.17 2.43-1.25.97-.07 1.83.21 2.59.87.71.61 1.1 1.4 1.18 2.37.07.97-.22 1.84-.87 2.59l-24.82 28.96zM857.22 743.97c-.57.97-1.41 1.6-2.52 1.89-1.11.29-2.15.15-3.12-.42l-53.56-31.37c-.97-.57-1.6-1.41-1.89-2.52-.29-1.11-.15-2.15.42-3.12l13.22-22.57c1.26-2.16 2.85-3.94 4.77-5.36a18.2 18.2 0 0 1 13.21-3.45c2.36.3 4.62 1.08 6.78 2.34 2.43 1.42 4.37 3.21 5.82 5.37 1.45 2.16 2.42 4.5 2.9 7.02 3.12-1.87 6.53-2.82 10.21-2.88 3.69-.05 7.2.91 10.55 2.86 2.43 1.42 4.45 3.22 6.07 5.4s2.77 4.55 3.44 7.12c.67 2.57.83 5.2.49 7.89-.35 2.69-1.23 5.25-2.65 7.68l-14.14 24.12zm-26.82-57.54c-1.29-.76-2.67-1.22-4.13-1.39-1.46-.17-2.87-.07-4.24.29s-2.65.97-3.84 1.83c-1.19.86-2.18 1.96-2.97 3.31l-10.57 18.04 19.17 11.23 10.57-18.04c.79-1.35 1.27-2.75 1.43-4.21.17-1.46.07-2.87-.29-4.24s-.97-2.65-1.83-3.84c-.84-1.2-1.95-2.19-3.3-2.98zm-.51 36.86 23.3 13.65 11.47-19.58c.95-1.62 1.53-3.32 1.75-5.12.22-1.79.11-3.52-.33-5.19-.44-1.67-1.17-3.22-2.21-4.67-1.04-1.44-2.37-2.64-3.99-3.58-1.62-.95-3.32-1.53-5.12-1.75-1.79-.22-3.52-.11-5.19.33-1.67.44-3.22 1.2-4.65 2.28-1.43 1.08-2.62 2.43-3.57 4.05l-11.46 19.58zM316.95 518.73c.84-4.06 2.23-9.27 4.7-15.64 3.03-7.82 7.06-12.84 11.75-15.21 4.21-2.24 9.44-2.51 14.89-.4 5.54 2.15 9.27 5.47 11.26 9.8 2.83 5.91 2.47 13.6-.53 21.33-.92 2.36-1.85 4.51-3.01 6.15l24.54 9.51-3.06 7.91-60.54-23.45zm32.61 3.54c1.12-1.55 2.15-3.66 3.17-6.3 3.7-9.54 1.32-17.16-7.14-20.43-8.09-3.13-14.22 1.08-17.6 9.81-1.34 3.45-2.09 6.2-2.25 7.7l23.82 9.22zM382.47 480.31l12.32 17.94-5.31 6.98-38.77-57.54 6.2-8.15 65.86 21.93-5.49 7.21-20.7-6.92-14.11 18.55zm7.77-21.16-18.94-6.33c-4.3-1.43-7.99-3.02-11.61-4.54l-.12.16c2.51 3.14 5.04 6.41 7.46 9.84l11.23 16.63 11.98-15.76zM391.14 406.17c1.3-5.19 4.13-10.6 9.35-15.44 8.37-7.75 18.2-8.75 25.09-1.32 5.5 5.94 5.38 14.41.92 20.94l.13.14c7.45-5.58 16.5-5.72 22.92 1.22 9.27 10.01 4.33 22.03-4.46 30.18-4.36 4.04-9.8 7.35-15.5 8.51l-2.86-6.39c3.96-.88 9.58-3.43 13.51-7.07 7.15-6.63 7.51-14.13 2.61-19.42-6.69-7.22-15.55-2.87-21.7 2.83l-2.86 2.65-4.37-4.72 2.86-2.65c6.36-5.9 7.65-14.4 3.08-19.33-4.5-4.86-10.45-4.4-15.67.44-3.65 3.38-6.05 8.39-7.1 12.42l-5.95-2.99zM440.67 361.14c3.21-2.63 7.57-5.8 13.49-9.19 7.27-4.17 13.57-5.53 18.7-4.42 4.68.91 8.92 3.99 11.82 9.06 2.96 5.16 3.76 10.09 2.58 14.7-1.51 6.37-6.65 12.12-13.83 16.24-2.2 1.26-4.28 2.34-6.21 2.89l13.09 22.83-7.36 4.22-32.28-56.33zm23.11 23.27c1.85-.5 3.98-1.49 6.43-2.9 8.88-5.09 11.82-12.5 7.31-20.37-4.31-7.53-11.73-8.11-19.84-3.46-3.21 1.84-5.52 3.5-6.6 4.57l12.7 22.16zM513.34 376.29l-.2 21.76-8.35 2.67 1.24-69.38 9.75-3.12 41.38 55.74-8.63 2.76-12.98-17.54-22.21 7.11zm18.5-12.88-11.89-16.05c-2.7-3.64-4.82-7.06-6.9-10.38l-.19.06c.26 4.01.46 8.14.47 12.34l-.33 20.06 18.84-6.03zM606.21 318.61l.02 7.12-28.37.07.04 17.64c2.05-.3 5.94-.5 8.09-.51 6.24-.02 12.38 1.33 16.97 4.34 4.98 3.2 8.4 8.36 8.42 16.06.02 6.14-2.02 10.83-5.42 14.25-5.35 5.28-14.21 7.35-23.18 7.37-5.95.01-10.43-.36-13.26-.75l-.16-65.51 36.85-.08zM578 377.85c1.95.39 4.19.48 7.12.47 5.26-.01 10.62-1.68 13.83-5.1 2.24-2.34 3.59-5.56 3.58-9.66-.01-5.07-2.17-8.48-5.39-10.71-3.42-2.33-7.81-3.29-12.49-3.28-1.95 0-4.58.21-6.73.41l.08 27.87zM684.1 358.38c-4.22 22.22-19.96 31.44-36.43 28.31-17.05-3.24-26.51-18.72-22.8-38.26 3.89-20.49 19.17-31.48 36.41-28.21 17.62 3.34 26.46 19.01 22.82 38.16zm-50.28-8.45c-2.62 13.79 2.51 27.56 15.63 30.05 13.22 2.51 22.99-8.24 25.78-22.89 2.44-12.83-1.72-27.51-15.61-30.15-13.8-2.61-23.11 8.81-25.8 22.99zM717.94 350.78l-17.1-10.33 3.73-6.17 41.63 25.14-3.73 6.17-17.19-10.38-30.23 50.06-7.34-4.43 30.23-50.06zM742.09 405.06l-18.4 11.63-6.78-5.57 58.97-36.57 7.91 6.5-24.41 64.99-7-5.76 7.7-20.42-17.99-14.8zm20.85 8.57 7.04-18.69c1.6-4.24 3.32-7.87 4.98-11.43l-.15-.12c-3.23 2.39-6.6 4.8-10.11 7.08l-17.04 10.59 15.28 12.57zM824.64 420.59l-21.65 16.93 19.57 25.03 21.65-16.93 5.28 6.76-51.75 40.47-5.28-6.76 24.26-18.97-19.57-25.03-24.26 18.97-5.22-6.68 51.75-40.47 5.22 6.68zM865.54 540.17c-19.32 11.75-36.71 6.25-45.42-8.08-9.02-14.82-3.86-32.22 13.13-42.56 17.82-10.84 36.22-6.86 45.34 8.13 9.31 15.33 3.6 32.38-13.05 42.51zm-27.42-42.99c-11.99 7.3-18.78 20.33-11.84 31.74 6.99 11.49 21.52 11.55 34.26 3.8 11.16-6.79 19.27-19.71 11.92-31.79-7.29-11.99-22.01-11.25-34.34-3.75z"/>
        <circle class="st1" cx="335.18" cy="611.73" r="13"/>
        <circle class="st1" cx="861.18" cy="611.73" r="13"/>
    </g>
</svg>
