<svg width="121" height="51" fill="none" xmlns="http://www.w3.org/2000/svg">
    <mask id="a" style="mask-type:alpha" maskUnits="userSpaceOnUse" x="1" y="0" width="52" height="51">
        <path fill-rule="evenodd" clip-rule="evenodd" d="M1 0v51h51.346V15.093h-2.884v-2.868h-2.885V9.356h-2.884V6.488h-2.885V0H1Z" fill="#C4C4C4"/>
    </mask>
    <g mask="url(#a)" fill="#3E3E3E">
        <path d="M68.135 29.159c-.033-2.046-.608-4.093-.723-6.135a22.187 22.187 0 0 0-.293-3.231c-.253-1.22-.856-2.477-.766-3.748.065-.89.556-1.69.723-2.556a4.317 4.317 0 0 0-.336-2.398c-.69-1.795-2.205-3.281-3.669-4.47a13.56 13.56 0 0 1-1.268-1.177l-.206.233a.902.902 0 0 0-1.056.162c-.206.201-.817.097-1.11.18a6.3 6.3 0 0 0-1.257.646 13.627 13.627 0 0 0-2.736 2.197 54.322 54.322 0 0 1-2.754 2.47 6.41 6.41 0 0 1-1.211.76 3.147 3.147 0 0 1-.575.151c1.601-2.035 3.16-4.028 4.139-6.461.574-1.436.986-2.897 1.619-4.308.448-1.016.661-2.108 1.084-3.106a.46.46 0 0 0-.305-.672.47.47 0 0 0-.28.023c-.256-.599-.505-1.197-.749-1.795-1.63-3.95-7.257-4.107-10.55-4.211-2.855-.09-5.482-.338-7.622-2.434-1.301-1.274-3.003-2.588-4.944-2.448-2.462.172-4.377 1.698-6.506 2.767-1.308.66-2.718.876-4.077 1.382l-.473.19a.725.725 0 0 0-.922-.085c-.958.57-2.107.606-3.155.944-1.207.387-2.44.743-3.632 1.177-1.757.646-3.116 1.795-4.424 3.098-.705.718-1.525 1.329-2.187 2.057C7.155-.802 6.7.156 5.746.835A32.092 32.092 0 0 1-.323 4.159c-1.998.84-4.091 1.612-5.027 3.715-.362.812-.839 1.537-1.229 2.334a26.383 26.383 0 0 0-1.359 3.809c-.361 1.206-.647 2.434-.99 3.643-.322 1.128-.705 2.212-.636 3.4.061 1.023.448 1.72.831 2.624.546 1.282.242 2.596-.101 3.877-1.052 3.931-2.223 8.957-.26 12.737.585 1.127 1.243 2.255 1.308 3.554.058 1.153-.17 2.283.018 3.432.361 2.136 1.446 3.694 3.22 4.922 1.966 1.375 3.994 2.602 5.725 4.254.665.635 1.106 1.39 1.854 1.96.936.718 1.862 1.676 2.892 2.258 2.035 1.16 4.17 2.05 6.27 3.07.958.462 1.912.922 2.892 1.37.98.45 1.764 1.232 2.718 1.763 1.12.625 2.197 1.077 3.491.758 1.135-.273 2.169-.844 3.35-1.013a6.186 6.186 0 0 1 1.587 0c0-.115.033-.233.047-.359a.828.828 0 0 0 .676-.502 35.675 35.675 0 0 0 1.652-5.42c.336-1.383.545-2.769.914-4.14.125 1.033.322 2.056.59 3.062.639 2.251-.127 5.191 1.72 7.008a.95.95 0 0 0 .23.172c.023.111.04.222.062.334h.03c1.37-.252 2.594-.894 3.816-1.547a.879.879 0 0 0 .14.143c.044.04.12 0 .084-.064a1.26 1.26 0 0 1-.083-.155 21.07 21.07 0 0 1 2.472-1.188c1.16-.438 2.497-.847 3.546-1.522.636-.406 1.463-1.752 2.219-1.813.188-.015.372-.068.538-.158l.29-.072c2.07-.589 2.584-2.57 4.044-3.848 1.528-1.336 3.39-2.305 4.926-3.658a13.887 13.887 0 0 0 3.643-5.446c.141-.36.246-.973.495-1.293-.054.119.723-.387.723-.38.6-.449.936-1.095 1.529-1.572.723-.593 1.269-1.307 2.089-1.777 1.066-.61 2.169-1.038 3.213-1.738 1.554-1.059 2.48-2.933 2.769-4.76a9.208 9.208 0 0 0-.044-2.818 30.74 30.74 0 0 1-.426-3.956ZM57.37 10.104c.383.344.737.719 1.06 1.12.94 1.199 1.257 2.66 1.413 4.168.119 1.18-.658 2.925-.615 4.282a11.449 11.449 0 0 0-.17 5.385c-.361 1.077-.307 2.416-.55 3.482-.053.23-.118.46-.187.69-.293-.629-.6-1.25-.886-1.878.221-.89.46-1.777.749-2.635.057-.169-.214-.244-.268-.075a28.871 28.871 0 0 0-.654 2.326 15.181 15.181 0 0 1-.622-1.612c-.672-2.118-.054-3.949.235-6.052a.397.397 0 0 0-.119-.341 8.7 8.7 0 0 0 .51-2.438c0-.858.191-1.96-.055-2.771-.245-.812-1.044-1.684-1.619-2.348.59-.452 1.178-.887 1.778-1.303Zm-4.698 31.034c-.029-.194-.329-.111-.3.083.022.13.04.258.061.388-.072.068-.148.132-.216.204a40.002 40.002 0 0 0-1.616 1.745 6.482 6.482 0 0 0-.85-2.671 12.026 12.026 0 0 1 2.654-2.01 26.948 26.948 0 0 0 3.614-2.312c1.832-1.454 3.708-4.136 2.696-6.52a17.272 17.272 0 0 0-.203-.455c.058-.183.113-.36.163-.553.194-.749.338-1.509.43-2.276.05-.36.076-.718.13-1.077.09.309.196.624.318.944.51 1.335 1.124 2.617 1.645 3.949.78 1.978-.586 3.715-1.55 5.352-1.479 2.513-4.732 3.543-6.936 5.457l-.04-.248Zm-6.105 8.257c-.061-.905-.108-1.795-.21-2.718a22.418 22.418 0 0 0-.187-1.3 18.367 18.367 0 0 1 1.605-2.25c.11.03.228.03.34 0 .181.789.273 1.596.274 2.405 0 .27.04.535.058.8-.455.654-.874 1.33-1.254 2.03-.21.344-.42.692-.64 1.022l.014.011Zm-7.893 4.512c.105.381.199.765.293 1.153-.723.47-1.446.897-2.169 1.357-.076-.41-.152-.819-.238-1.228a19.264 19.264 0 0 0-.235-.926c.517-.338 1.023-.686 1.514-.977 1.113-.653 2.053-1.486 3.159-2.154l.788-.498c.173.768.322 1.536.444 2.311-.827.401-1.613.882-2.345 1.436-.239.19-.481.36-.723.535a39.352 39.352 0 0 0-.275-1.077.119.119 0 0 0-.138-.066.12.12 0 0 0-.09.124l.015.01Zm-1.807 4.24c.166.819.361 1.623.546 2.438.032.147.054.298.083.445-.723.258-1.424.527-2.118.843a26.919 26.919 0 0 0-.333-1.493c-.108-.42-.206-.84-.3-1.26.156-.04.311-.079.463-.133a8.895 8.895 0 0 0 1.644-.85l.015.01Zm-.438-1.479c-.596.398-1.084.89-1.727 1.196-.065.032-.134.057-.206.086-.174-.858-.361-1.716-.524-2.574.183-.038.364-.087.542-.148a8.206 8.206 0 0 0 1.594-.822l.021.076c.181.69.315 1.39.441 2.093l-.14.093Zm5.632-6.17a8.739 8.739 0 0 0 2.168-1.724c.101.768.184 1.54.34 2.294.029.147.061.29.094.438-.224.18-.457.35-.698.506-.466.301-.954.56-1.446.815a58.473 58.473 0 0 0-.473-2.34l.015.01Zm2.772.495c-.174-.83-.26-1.673-.384-2.514.64-.861 1.03-1.841 1.54-2.782.047.323.094.65.13.977.109 1.012.145 2.035.214 3.051a9.106 9.106 0 0 1-1.446 1.576c-.022-.111-.047-.215-.069-.309h.015Zm3.715-6.706a7.666 7.666 0 0 0-.239-1.271.414.414 0 0 0 .17-.388c0-.1-.028-.194-.047-.284l.246-.283c-3.614-1.935-7.633-3.59-10.915-5.992-.025.054-.05.112-.072.165l-.203-.064c-.267-.08-.53.036-.784-.15-.152-.112-.361.14-.202.265.304.248.63.47.972.664-.206.9-.253 1.849-.683 2.685-.13.255-.318.592-.463.833-.78 1.285-1.026 1.12-2.251 1.49a2.33 2.33 0 0 0-1.038.492c-.853.692-1.218 1.177-2.327 1.604-1.49.575-2.498 1.594-4.164.98-.69-.255-1.5-.42-2.168-.718-.926-.434-1.544-1.278-2.404-1.838.017-.452.042-.9.076-1.346.488.252.994.467 1.514.643.546.197 1.085.298 1.656.46.57.16 1.203.681 1.807.739.26.006.52-.039.762-.133.723-.142 1.43-.348 2.115-.618.773-.359 1.026-1.012 1.59-1.615.654-.718 1.645-.994 2.067-1.92.467-1.017 0-2.488.937-3.3.473-.405 1.17-.57 1.659-1.005.838-.747 1.214-1.414 2.266-1.974a10.747 10.747 0 0 0 2.772-2.1c.878-.87 1.084-1.465 1.214-2.671.09-.865.517-1.537.647-2.373.055-.407.087-.817.094-1.228.43-.675.322-1.418.17-2.226-.213-1.12-.17-2.617-.998-3.518a2.245 2.245 0 0 0-.845-.542 17.81 17.81 0 0 1-1.124-.502c0-1.03 0-2.065.018-3.095v-.021c.243-.108.511-.151.777-.126.057.013.114.028.17.047-.076.265-.149.53-.22.793a.095.095 0 0 0 .066.117.096.096 0 0 0 .117-.067c.084-.255.16-.506.232-.757.676.359 1.268 1.213 1.731 1.709.723.75 1.522 1.317 1.583 2.44.062 1.124 0 2.115.159 3.232-.13 2.265.68 4.835-.463 6.802-.574.988-.863 2.01-1.308 3.016-.401.915-1.955 1.795-2.768 2.287-.908.538-1.89 1.138-2.469 2.05l.799.376c.878-1.274 2.71-2.193 3.892-3.101.398-.305.955-.388 1.298-.758.455-.502.687-1.436 1.037-2.057.35-.62.867-1.289 1.034-1.996.067-.278.079-.567.036-.85.723-1.332 1.67-2.725 1.767-4.265 0-.187-.282-.187-.293 0-.083 1.35-.87 2.624-1.554 3.82-.032-.162-.068-.33-.097-.518a23.348 23.348 0 0 1-.174-5.636.3.3 0 0 0-.227-.297.305.305 0 0 0-.134-.004c0-.216-.029-.431-.025-.657 0-.718.314-1.461.253-2.19-.08-.94-.835-1.953-1.587-2.764l.108-.33c.203-.618.349-1.252.434-1.896.322.442.622.89.936 1.332a.203.203 0 0 1 0 .047c.003.013.01.025.022.033a.054.054 0 0 0 .04.01c.418.607.903 1.167 1.445 1.669 1.417 1.256 1.894 2.082 1.876 4.067 0 .169 0 .36-.032.56a24.36 24.36 0 0 0-.817 4.667 8.618 8.618 0 0 0 .047 2.154c.112.621.361 1.145.491 1.723a5.328 5.328 0 0 1-.892 1.127c-.051.047.021.115.075.076.334-.275.624-.598.86-.959.03.207.037.417.019.625-.185 2.068-1.511 3.59-3.083 4.9l.575.55a18.667 18.667 0 0 0 2.078-1.817c.57-.66.759-1.415 1.03-2.237.361-1.123.162-2.017-.069-2.968.18-.36.361-.697.539-1.03.675-1.221 1.268-2.481 1.883-3.734a7.885 7.885 0 0 0 .53 3.152c.066.172.138.34.207.51-.163.319-.329.639-.517.944-.188.305-.416.639-.614.965-.04.065-.77 1.232-.785.582 0-.043-.072-.058-.08 0a.803.803 0 0 0 0 .488.089.089 0 0 0 .044.054.09.09 0 0 0 .069.007c.495-.194.672-.57.95-1.005.362-.578.723-1.138 1.052-1.73.253.606.52 1.206.774 1.816-.127.29-.257.585-.409.872a4.218 4.218 0 0 0-.593 1.663c0 .093.127.1.156.021.267-.761.669-1.436 1.005-2.154.553 1.48-.467 2.779-1.186 4.003-.918 1.569-2.743 2.37-4.29 3.41l.445.481c.202-.133.415-.265.64-.391a22.69 22.69 0 0 0 3.075-1.974c1.236-.98 2.49-2.617 2.53-4.265.206-.514.322-1.102.427-1.436.36-1.11.603-2.244.863-3.375.062.201.13.406.21.614.257.671.542 1.325.824 1.978-.087.36-.177.736-.271 1.099a15.98 15.98 0 0 0-.394 2.09c-.05.328-.138.651-.26.961 0 .036-.564 1.375-.524.618a.043.043 0 0 0-.042-.031.044.044 0 0 0-.041.03c-.062.27-.066.173 0 .439a.084.084 0 0 0 .122.05c1.056-.603.98-2.316 1.215-3.303.123-.513.242-1.03.361-1.55.16.358.318.742.467 1.12.148.38.215.787.198 1.195-.115.47-.231.937-.361 1.404-.363.74-.769 1.459-1.215 2.153-1.279 2.183-4.058 3.098-6.01 4.718.105.125.21.25.31.38a.16.16 0 0 1-.014.211.164.164 0 0 1-.213.015c-.134-.108-.26-.226-.39-.337-.087.082-.177.161-.264.247-.394.403-.784.826-1.171 1.26l.582.417c.188-.208.361-.406.564-.6.459.854.73 1.795.795 2.761a31.155 31.155 0 0 0-1.66 2.11 19.306 19.306 0 0 0-.147-1.758l.014.01Zm-31.339 7.19c0 .126.025.248.036.36l-.148-.076a8.686 8.686 0 0 0-1.323-.514c-.112-1.152-.303-2.304-.437-3.46a8.07 8.07 0 0 0 1.608.574c.405.97.141 2.086.264 3.116Zm1.561 2.19c.08 1.282.242 2.563.242 3.848v.018c-.36-.18-.404-.359-.563-.549a5.548 5.548 0 0 0-.662-.607c0-.477-.021-.955 0-1.436 0-.578.022-1.16 0-1.74.09.035.22.064.308.103.238.097.466.218.679.363h-.004Zm3.376 2.563c.262.076.529.135.799.176.054.69.108 1.379.199 2.053.05.369.104.739.162 1.11a9.765 9.765 0 0 1-1.427-.144 3.534 3.534 0 0 1-.503-.122 166.34 166.34 0 0 1-.166-1.13 15.278 15.278 0 0 1-.137-2.395c.342.187.703.339 1.077.452h-.004Zm-1.203 1.853.173 1.13-.148-.057c-.112-.488-.25-.97-.362-1.436a.13.13 0 0 0-.097-.093l-.253-.05c-.17-.037-.242.222-.073.258.243.046.402.678.5 1.199a5.812 5.812 0 0 1-1.5-1.142v-1.4a71.794 71.794 0 0 0-.123-2.513c.27.255.513.55.82.89.277.304.595.57.943.79a14.5 14.5 0 0 0 .123 2.424h-.003Zm-3.55 1.794v.804c-.448-.236-.91-.455-1.38-.667a3.78 3.78 0 0 0 .025-.38c0-1.042-.152-2.072-.213-3.106.267.083.535.172.791.28.276.115.537.263.777.442-.003.876-.003 1.752.004 2.627h-.004Zm-3.56-5.442c0-.474.03-.951.036-1.436 0-.359 0-.7.022-1.052.55.183 1.124.32 1.674.496 0 .869-.037 1.737-.062 2.606a10.487 10.487 0 0 0-1.666-.614h-.004Zm-.206 2.531c.099.702.147 1.41.145 2.118a99.857 99.857 0 0 1-1.504-.61l-.068-.032a148.585 148.585 0 0 1-.17-3.113c.491.158 1 .29 1.492.434.01.403.045.805.109 1.203h-.004Zm-3.936.126c0-.59 0-1.11-.025-1.285a29.985 29.985 0 0 1-.112-1.882c.304.237.607.478.933.7.355.23.735.418 1.134.56a23.602 23.602 0 0 0 .196 3.077c-.72-.359-1.4-.808-2.122-1.167l-.004-.003ZM.548 46.469l-.108-.057-.076-.058v-4.85a5.102 5.102 0 0 0 1.854 2.223V47.57A14.708 14.708 0 0 0 .552 46.47H.548Zm1.634-28.518c.13.108.26.216.398.309.036-.061.065-.126.1-.187.525-.904 1.154-1.755 1.468-2.76.362-1.153.362-2.434 1.142-3.429.636-.804 2.053-1.102 2.892-1.77.838-.667 1.612-1.313 2.497-1.888 1.778-1.156 2.382-2.333 3.184-4.272.362-.886.68-1.773 1.294-2.513.257-.303.56-.566.896-.779a.105.105 0 0 0 .134.05C17.6.186 19.111-.762 20.567-.995c1.576-.255 3.463.2 4.988-.312.105 1.141.264 2.29.412 3.431-1.059.36-2.273.047-3.375.176a8.302 8.302 0 0 0-2.939.945h-.032c-1.609.717-2.856 1.076-3.615 2.821-.596 1.393-.896 2.588-2.298 3.385-.838.444-1.634.962-2.378 1.548-1.381 1.134-2.73 1.949-3.463 3.622-.437 1.005-.444 2.075-.968 3.066-.34.639-.774 1.227-1.085 1.87l.532.118a4.78 4.78 0 0 1 .21-.405c-.03.449-.07.894-.13 1.339a15.52 15.52 0 0 1-2.386-.822c.305-1.501.759-2.968 1.355-4.38.069-.158-.166-.298-.239-.136a23.452 23.452 0 0 0-1.387 4.394 7.017 7.017 0 0 1-1.76-1.185l.173-.528Zm7.894-1.152c0 1.149-.362 1.493-.97 2.402-.192.29-.365.594-.516.908.278.054.557.115.828.18.149-.373.326-.733.531-1.078.539-.922.893-2.53 1.601-3.27.82-.85 2.169-1.257 3.083-2.021.408-.36.61-.901.933-1.307.36-.477.881-.843 1.254-1.328.13-.168.25-.343.361-.524.361-.36.658-.75.89-1.03.404-.492.881-.916 1.282-1.408a4.59 4.59 0 0 0 .362-.556c.151-.058.361-.126.647-.22 2.23-.717.451 0 1.445-.143 1.15-.158 2.107-.61 3.199-1.009.466-.198.914-.439 1.337-.718.069.679.148 1.332.257 1.975a2.49 2.49 0 0 0-1.67-.316c-.51.122-.697.391-1.063.75a11.428 11.428 0 0 1-3.075 2.154 8.27 8.27 0 0 0-3.531 2.973.143.143 0 0 0 .068.215c-1.384 1.712-2.432 3.798-4.098 5.191a4.555 4.555 0 0 0-1.536 2.438l.155.075a.359.359 0 0 1-.267.628c-1.345-.359-3.123-.65-4.858-1.077.083-.633.13-1.27.141-1.91.392-.587.71-1.22.947-1.884.307-.984.3-2.075.972-2.922.546-.686 1.753-.941 2.472-1.508.72-.567 1.374-1.12 2.13-1.612 1.513-.984 2.027-1.989 2.71-3.644a8.2 8.2 0 0 1 1.106-2.154c.218-.26.476-.485.766-.664a.081.081 0 0 0 .047.045.084.084 0 0 0 .065-.002c1.204-.452 2.494-1.256 3.737-1.457 1.33-.216 2.917.165 4.214-.255.065.528.123 1.055.167 1.58l.032.409c-.105.068-.206.14-.296.204a12.087 12.087 0 0 1-2.892 1.436c-.99.36-1.17.036-2.078-.082-1.221-.155-1.68.502-2.082 1.26a.087.087 0 0 0-.104 0c-.745.588-1.168 1.353-1.71 2.125a24.4 24.4 0 0 1-.629.844 2.787 2.787 0 0 0-.629.775c-.361.441-.762.876-1.17 1.3-1.165 1.21-3.8 1.532-4.482 3.187-.1.34-.127.695-.08 1.045h-.004Zm36.377-9.88c-.275-.114-.546-.218-.766-.305a3.717 3.717 0 0 0-.6-.175c.04-.862.066-1.724.075-2.585H46.62v.107a30.863 30.863 0 0 1-.163 2.959h-.003Zm-.918 4.919c-.257-.292-.528-.57-.813-.833.14-1.275.256-2.549.328-3.83.258.03.51.092.752.183.192.07.38.15.564.24-.213 1.404-.622 2.836-.813 4.261l-.018-.021Zm-.723-5.453c-.426-.072-.867-.108-1.276-.173a9.84 9.84 0 0 1-2.385-.574c-.795-.32-1.482-.847-2.274-1.152-.791-.306-1.445-.069-2.251-.04a3.94 3.94 0 0 1-2.136-.488c.043.316.072.632.086.955.661.223 1.352.344 2.05.359.343 0 .657-.111.997-.13.792-.039 1.272.413 1.833.884 1.134.955 2.378 1.077 3.776 1.105.492 0 1.023 0 1.533.025-.054.902-.12 1.795-.21 2.7-.032.305-.061.614-.094.923a6.289 6.289 0 0 0-2.194-1.239c.019-.359.03-.75.03-1.138a.147.147 0 0 0-.149-.147.149.149 0 0 0-.148.147v1.056a7.853 7.853 0 0 0-1.373-.245c-1.735-.143-2.892 1.178-4.525-.359-.535-.491-.98-1.152-1.573-1.586-.021.43-.043.854-.054 1.267 1.009.933 1.833 2.222 3.22 2.33.698.057 1.186-.399 1.808-.571a4.394 4.394 0 0 1 2.457.215c-.02.447-.068.892-.144 1.332-.065.36-.145.718-.228 1.052a1.306 1.306 0 0 0-.361-.057c-.362 0-.723.359-1.085.495-1.312.449-3.303-.301-4.597-.718-.325-.108-.748-.226-1.171-.359 0 .295-.036.585-.061.88 1.062.25 2.168.423 3.227.782.564.19 1.157.496 1.771.492.25-.022.493-.084.723-.183v2.872c-.329-.169-.658-.36-1.02-.56-1.351-.783-2.858-.334-4.336-.36-1.479-.024-2.462-.692-3.383-1.82a3.55 3.55 0 0 0-1.052-1.033c-.629-.33-1.428-.36-2.1-.564-.907-.273-1.76-.689-2.653-.99a5.874 5.874 0 0 0-3.715.021c-.723.298-1.287.958-1.807 1.644-1.341 1.2-2.02 3.619-2.606 5.026-.933 2.211-2.783 3.981-2.892 6.462-.065 1.569.669 3.062.109 4.606-.43 1.18-1.399 2.096-1.833 3.23-.748 1.99.955 2.294 2.43 2.837.697.258 1.994.516 2.53.962.458.395.776 1.012 1.163 1.482l.087.104c-.032.46-.04.922-.026 1.382a.047.047 0 0 0 .047.047.047.047 0 0 0 .047-.047c0-.398.047-.793.087-1.188a16.276 16.276 0 0 0 2.082 2.251c.202.166.417.315.643.445-.018.46-.025.916-.021 1.375a3.319 3.319 0 0 0-.337-.183c-.961-.445-1.778-1.023-2.75-1.386-1.51-.567-1.92-2.024-3.12-2.99-.867-.7-1.846-.718-2.89-.966a2.642 2.642 0 0 1-1.843-1.515c.066-.766.073-1.537.02-2.304-.017-.151-.263-.155-.241 0a10.59 10.59 0 0 1 0 1.726c-.618-2.035 0-4.968.665-6.461.272-.593.513-1.2.723-1.817l-.112-.018a.222.222 0 0 1-.138.338 3.639 3.639 0 0 1-1.445-.094 2.33 2.33 0 0 0-.217-.668c-.065-.125-.253 0-.192.112.076.157.132.324.166.495a19.868 19.868 0 0 1-2.338-.919c.04-.287.087-.574.137-.861 0-.083.03-.162.04-.244l.698.2c0-.168 0-.337.025-.513.022-.829.101-1.655.238-2.473.845.168 1.673.409 2.476.718-.08 1.001-.058 2.046-.18 3.084l.986.315a7.163 7.163 0 0 0 .177-1.565c.018-1.96-.068-3.859 1.403-5.385 2.208-2.265 3.682-5.09 5.782-7.438a.097.097 0 0 0 0-.122c.626-.359 1.32-.639 1.97-.951a9.045 9.045 0 0 0 1.807-1.153c1.247-1.02 1.909-1.4 3.293-.359.08.058.152.119.228.18.23.864.541 1.706.928 2.513a.36.36 0 0 0 .324.199.363.363 0 0 0 .323-.2c.212-.51.335-1.052.362-1.604l.202-.025a73.343 73.343 0 0 1-1.178-6.749 22.37 22.37 0 0 0-.333-1.658l.123-.108-.054-.539-.191.155-.123-.442c-.235-.836-.604-1.651-.886-2.484.535-.402.925-.937 1.515-1.3a5.524 5.524 0 0 1 1.962-.764c1.084-.122 2.006.52 2.671 1.386.954 1.245 1.193 3.011 2.776 3.65a7.92 7.92 0 0 0 2.587.478c.402 0 .774-.133 1.172-.15.928-.051 1.492.48 2.146 1.03 1.117.94 2.32 1.206 3.647 1.274.058.829.036 1.683-.007 2.53Zm-1.634 7.538a4.818 4.818 0 0 0-1.373-.965c.18-.782.308-1.575.387-2.373a4.44 4.44 0 0 1 1.749 1.16c.126.147.242.297.361.448-.043.33-.09.66-.148.987-.063.484-.154.963-.275 1.436-.249-.24-.487-.488-.7-.689v-.004Zm-3.028 5.478a.072.072 0 0 0 .072.072c.019 0 .037-.007.051-.02a.072.072 0 0 0 .021-.052c0-.28.022-.56.03-.84.102.02.203.046.303.076 1.413.463 1.77.764 1.991 2.154.094.614.253 1.267.314 1.917a.152.152 0 0 0-.032.057c-.322 1.515-.886 2.815-1.323 4.272-.466 1.555-1.323 2.538-2.53 3.565-.495.416-1.084.6-1.583 1.002a6.746 6.746 0 0 0-1.019 1.303c-.694.922-1.424 1.21-2.324 1.795-.31.163-.575.4-.77.689-.575.933-.083 2.233-.665 3.173-.3.481-1.084.78-1.503 1.181-.597.56-.752 1.347-1.602 1.684-.523.16-1.058.28-1.6.359-.157.063-.308.14-.449.233a2.503 2.503 0 0 1-1.608-.65c-.499-.14-1.254-.143-1.691-.29a6.312 6.312 0 0 1-1.808-1.127c-.083-.069-.162-.144-.242-.216 0-.118.026-.237.04-.359a9.05 9.05 0 0 0 .09-1.594 12.25 12.25 0 0 0-.274-1.436c-.03-.161-.272-.093-.246.069.14.54.242 1.092.303 1.647a9.974 9.974 0 0 1-.1 1.505c-.583-.546-1.11-1.16-1.717-1.68-.34-.305-.66-.63-.958-.973.104-.826.213-1.655.27-2.492.802.101 1.55.453 2.137 1.005.661.643.777 1.515 1.24 2.215 1.033 1.576 2.83 1.752 4.337.89.77-.434 1.807-.832 2.425-1.482.813-.854.943-2.172 1.72-3.084.853-1.001 1.496-2.355 2.559-3.087.896-.621 1.991-.567 2.873-1.149.882-.581 1.493-1.795 1.938-2.739.247-.47.423-.973.524-1.493.1-.679-.326-1.142-.16-1.95.026-.125-.162-.226-.223-.093a.513.513 0 0 0-.033.08 7.69 7.69 0 0 0-.304-1.616 4.389 4.389 0 0 0-1.962-1.907c-.723-.308-1.688-.262-2.476-.405-1.464-.27-2.78-1.077-4.073-1.842-.868-.52-1.482-1.493-2.476-1.795-.698-.222-1.507-.046-2.226-.104a3.27 3.27 0 0 0-2.371.592.098.098 0 0 0-.127 0 11.42 11.42 0 0 0-2.23 2.495c-.723 1.077-.723 1.752-.799 2.966-.108 1.482-.553 2.243-1.518 3.302-.66.718-.972 1.185-.982 2.204-.019 1.878.957 3.009.032 4.904-.177.36-.459.38-.361.883.148.718.997.883 1.579 1.023.238.058.47.105.69.148-.05.779-.14 1.554-.224 2.333a6.328 6.328 0 0 0-1.529-1.343c-.986-.527-2.421-.358-3.364-1.008-1.602-1.077 1.127-3.827 1.507-4.847.38-1.02.188-1.92.068-2.918a6.683 6.683 0 0 1 .12-2.919c.27-.804.86-1.403 1.203-2.154.51-1.134.922-2.405 1.377-3.564.456-1.16.918-3.055 1.905-4.183.134-.132.267-.262.405-.387.15-.123.313-.228.488-.313a.126.126 0 0 0 .068-.161 3.3 3.3 0 0 1 1.522-.69c1.467-.211 2.62.273 3.976.783.585.223 1.178.456 1.781.632 1.124.334 1.641.93 2.476 1.777.618.625 1.084 1.113 1.92 1.436a8.815 8.815 0 0 0 2.815.463c1.023.05 1.847-.047 2.812.449.336.172.603.449.957.603.174.07.354.121.539.15-.022.291-.014.586.004.877Zm-21.494 8.975c-.051-.984.29-1.949.95-2.685.644-.83.763-1.558.81-2.592.058-1.242-.271-2.355.303-3.522a8.054 8.054 0 0 1 1.197-1.669.088.088 0 0 0 .036-.018c.574-.384 1.044-.933 1.68-1.213.94-.413 1.49-.14 2.418-.043 1.15.122 1.652.129 2.57 1.005.594.574 1.23 1.102 1.905 1.58.618.43 1.196.98 1.912 1.249.791.301 1.47.111 2.291.1 1.03 0 1.945.162 2.704.898.759.736.921 1.795 1.297 2.775-.112.635-.069 1.256-.289 1.931-.401 1.235-1.391 2.93-2.718 3.31-1.446.413-2.573.718-3.44 2.086-.615.958-1.414 1.708-2.05 2.642-.636.933-.672 1.827-1.782 2.455-.965.542-2.345 1.404-3.404 1.239-1.215-.187-1.327-1.145-1.952-1.964a7.923 7.923 0 0 0-1.605-1.615 4.236 4.236 0 0 0-1.308-.614 2.55 2.55 0 0 0-.575-.054v-.126c0-.154-.242-.154-.246 0v.126c-.349.036-.702-.02-1.022-.162-.95-.631.23-1.191.473-1.877.387-1.088-.098-2.19-.155-3.242ZM8.47 36.593c-.152-1.364-1.038-2.72-.839-4.096.224-1.55.662-3.14.835-4.731a5.53 5.53 0 0 0 1.713-.255c-.068.41-.166.816-.292 1.213-.21.718-.387 1.476-.582 2.215a29.842 29.842 0 0 0-.944 4.258c0 .061.09.072.105 0 .43-1.795.933-3.59 1.392-5.385.195-.765.524-1.587.582-2.39.133-.055.263-.105.39-.17a.423.423 0 0 0 .126-.11c-.686 2.512-1.333 4.835-.968 7.516a4.044 4.044 0 0 0 1.507 2.575c.362.206.757.349 1.167.423 1.569.481 2.248.765 3.343 2.079a8.396 8.396 0 0 0 2.426 2.067c.502.31.86.758 1.373 1.06.77.459 1.677.638 2.454 1.098.78.515 1.623.93 2.508 1.235 1.085.34 2.068 1.105 3.253.883 1.265-.244 2.53-.998 3.723-1.48.47-.235.92-.506 1.348-.81 1.02-.607 1.561-.428 2.53-.826 2.306-.948 2.06-3.5 2.584-5.557.817.524 1.677 1.052 2.53 1.565a11.79 11.79 0 0 0-.687 2c-.3 1.156-.802 1.436-1.807 2.103-.795.52-1.576 1.052-2.382 1.551-1.727 1.077-3.223 2.333-5.186 2.969-1.37.441-2.613.323-3.936.082-.553-.359-1.164-.434-1.89-.631-1.24-.338-2.62-.718-3.802-1.146-1.11-.405-1.663-1.436-2.75-1.91-1.089-.473-1.613-.337-2.657-1.076-.47-.338-.915-.675-1.395-1.002-.752-.51-1.446-1.436-2.31-1.745-1.001-.359-2.44.237-3.253-.682-.477-.57-.123-2.24-.198-2.9l-.011.01ZM5.03 23.936l.202.06.492.094c-.069.28-.134.564-.206.847-.127-.04-.257-.082-.387-.118.025.19.047.38.054.574a4.023 4.023 0 0 0-.874-.133c-.48-.018-1.045.09-1.583.115.152-.524.303-1.052.433-1.58.286-1.173.52-2.38.781-3.59.492.216.98.414 1.428.6a13.49 13.49 0 0 0-.362 2.61c0 .17.01.34.033.51l-.011.01Zm.752-.087a3.305 3.305 0 0 1-.152-.886 7.93 7.93 0 0 1 .235-1.946l.466.172c-.134.88-.325 1.767-.538 2.65l-.011.01Zm.842-2.566c.495.15 1.005.276 1.518.39-.018.184-.033.36-.047.557 0-.075-.022-.147-.04-.222-.036-.172-.3-.1-.267.075.253 1.224-.076 2.42-.271 3.63l-.022.143a6.986 6.986 0 0 1-1.334-.19v-.312a1.598 1.598 0 0 0-.032-.23c-.098-.036-.2-.061-.3-.093.307-1.257.607-2.503.806-3.76l-.011.012Zm-5.436 2.426c.213 0 .427-.018.643-.021a4.258 4.258 0 0 1-.242-1.246 9.152 9.152 0 0 1 .535-3.137c.503.291 1.022.555 1.554.79-.361 1.554-.647 3.123-1.084 4.641l-.184.64h-.214v-.12a3.962 3.962 0 0 0-.206-1.019c-.267 0-.538-.025-.81-.025a.256.256 0 0 1-.177-.076.25.25 0 0 1 .185-.427Zm1.066 2.255c-.04.14-.08.276-.115.416.021-.15.04-.298.054-.448l.061.032Zm-.48 1.867c-.098.434-.181.868-.239 1.314-.087.642-.267 1.597.361 2.038.044.033.112-.032.076-.075-.578-.75-.094-2.323.083-3.145.138-.628.308-1.245.488-1.86.8.331 1.62.61 2.454.837-.477 1.77-1.474 3.357-1.366 5.302.069 1.243.774 2.233.745 3.511-.018.991-.22 1.96.05 2.937.535 1.899 1.855 2.43 3.318 3.504.022.018.048.029.076.032.038.042.08.082.123.118.502.431 1.084.758 1.594 1.203.838.743 1.532 1.637 2.486 2.244.433.242.878.462 1.334.657.246 1.355.347 2.733.3 4.11a5.807 5.807 0 0 1-.647-.334 12.927 12.927 0 0 0-1.276-.696c-.094-.984-.343-1.896-.52-2.872-.033-.172-.296-.1-.268.072.156.894.344 1.748.456 2.638a23.184 23.184 0 0 1-2.06-1.077l-.047-.028a19.07 19.07 0 0 0-.76-4.003c-.046-.158-.3-.094-.249.068.37 1.21.591 2.458.662 3.72-.455-.334-.89-.693-1.301-1.078a12.154 12.154 0 0 0-.557-4.143c-.054-.143-.285-.082-.231.061a11.63 11.63 0 0 1 .535 3.867 13.589 13.589 0 0 0-1.728-1.382l-.282-.19c.01-1.28-.146-2.555-.462-3.795a.123.123 0 0 0-.235.065c.292 1.158.438 2.348.433 3.543a11.352 11.352 0 0 0-1.315-.858l-.098-.054c-.38-.305-.788-.574-1.174-.872 0-.94-.019-1.878.04-2.811.064-1.03.249-2.183-.304-3.116a.134.134 0 0 0-.185-.047.133.133 0 0 0-.047.183c.615 1.06.239 2.474.21 3.626 0 .635-.022 1.27-.022 1.906-.072-.06-.144-.118-.213-.183C.99 41.781.613 40.327.668 38.956c.043-1.077.289-2.097.108-3.17-.267-1.573-.495-2.872-.17-4.459.239-1.181.78-2.33 1.168-3.504v.008ZM15.04 47.618c.13 1.177.333 2.362.445 3.543-.535-.158-1.084-.309-1.58-.506a20.712 20.712 0 0 0-.292-4.067c.517.312.936.7 1.427 1.03Zm-1.489 6.731c-.53-.154-1.062-.309-1.568-.506 0-.291-.022-.582-.03-.876a50.886 50.886 0 0 0-.126-2.194c.257.201.51.406.785.59.314.204.65.372 1.004.498 0 .546-.032 1.095-.043 1.644-.007.28-.018.56-.025.844h.003Zm-10.994-9.13v-1.263c.47.33.976.654 1.496 1.038a.207.207 0 0 0 .09.036c.054.057.1.104.141.14.272.23.56.434.853.639 0 1.35-.086 2.71 0 4.063a20.16 20.16 0 0 0-2.45-2.01c-.033 0-.065-.043-.098-.065-.04-.857-.036-1.72-.036-2.577h.004Zm2.794 3.59c0-.94.025-1.877.032-2.81.264.18.518.376.76.585.43.38.827.793 1.235 1.2-.032 1.058-.1 2.11-.097 3.104 0 .194 0 .385.021.575a8.908 8.908 0 0 1-.51-.295 10.616 10.616 0 0 1-1.376-1.026 18.46 18.46 0 0 1-.069-1.336l.004.004Zm2.222 1.57c0-.758.037-1.548.058-2.345.42.426.88.808 1.377 1.142.036 1.077.138 2.154.192 3.23-.524-.254-1.056-.502-1.572-.77-.033-.421-.058-.837-.058-1.261l.003.004Zm1.92 1.493c-.04-.833-.073-1.658-.123-2.484.455.244.94.427 1.398.671.253.137.495.293.723.467.062.98.12 1.96.127 2.943v.223a4.943 4.943 0 0 1-.683-.359 16.479 16.479 0 0 0-1.417-.772c-.011-.233-.018-.463-.029-.693l.004.004Zm7.907 3.762v.47a12.846 12.846 0 0 0-1.597-.893c.022-.883.069-1.77.054-2.657.094.036.188.065.282.104.39.154.806.27 1.21.399.044.847.059 1.694.048 2.574l.003.003Zm-2.027-8.974a20.13 20.13 0 0 0-1.973-1.02c0-.057-.03-.111-.047-.165a.118.118 0 0 0-.129-.09.119.119 0 0 0-.106.115 10.89 10.89 0 0 1-.875-.477c-1.142-.697-1.991-1.774-3.123-2.495-.495-.313-1.084-.805-1.59-1.052l-.083-.047c-.474-.384-.998-.69-1.446-1.12a4.259 4.259 0 0 1-1.145-3.249c.036-.915.249-1.795.093-2.703-.227-1.343-.422-2.441-.144-3.802.224-1.109.759-2.179 1.084-3.284a7.3 7.3 0 0 0 1.406.394v.04c-.156.768-.25 1.547-.278 2.33-.268 1.648-.65 3.284-.828 4.94 0 .064.094.075.112 0 .25-.88.456-1.796.64-2.69 0 1.867 1.084 3.623.86 5.504-.061.578-.48 1.077-.242 1.64.21.492 1.052.887 1.493 1.077.798.338 1.572.166 2.4.36 1.004.226 1.962 1.292 2.84 1.902.879.61 1.544 1.257 2.53 1.727a6.93 6.93 0 0 1 2.09 1.518c.362.432.814.781 1.326 1.023 1.767.654 3.777.647 5.634 1.03 2.939 1.738 6.376-.107 8.837-1.812 1.807-1.246 3.784-2.086 5.653-3.166 1.17-.672 1.294-2.079 1.68-3.314L44 40.952a16.65 16.65 0 0 0-1.233 1.938 7.151 7.151 0 0 1-2.447 2.764c-.997.643-2.125 1.045-3.06 1.795-.828.657-1.746 1.138-2.625 1.727a10.56 10.56 0 0 1-1.304.905 7.612 7.612 0 0 1-2.422.47 15.47 15.47 0 0 0-2.913.384c-1.446.359-2.852.596-4.337.334-1.193-.212-1.909-.973-2.653-1.845-.604-.718-1.287-1.01-2.122-1.436-1.138-.585-2.464-.69-3.513-1.346l.004.017Zm40.06-23.557a8.987 8.987 0 0 0 .271 2.29c-.21.908-.404 1.816-.643 2.718-.163.628-.361 1.249-.567 1.863a3.007 3.007 0 0 0-.16-.514c-.162-.384-.34-.757-.516-1.13.151-.446.289-.894.43-1.336.397-1.274.95-2.567 1.182-3.91l.003.019Zm-.929-10.838c.21.205.407.423.59.653.834 1.077 1.116 2.359 1.25 3.694.108 1.049-.582 2.592-.542 3.795a13.003 13.003 0 0 0-.29 1.554.145.145 0 0 0-.252.09c-.033 1.795-.89 3.658-1.446 5.342-.061.186-.127.359-.188.552a26.282 26.282 0 0 1-.745-1.647 47.36 47.36 0 0 0 1.674-4.93c.047-.154-.195-.222-.246-.067-.459 1.49-.878 2.994-1.446 4.44-.028.076-.061.151-.093.223-.062-.169-.123-.338-.178-.513-.57-1.795-.043-3.379.203-5.16a.323.323 0 0 0-.101-.29c.242-.669.388-1.369.433-2.079 0-.718.163-1.672-.047-2.362a5.478 5.478 0 0 0-1.145-1.734c1.084-.315 1.778-.915 2.566-1.58l.003.019ZM-1.71 9.576c.239-1.185.886-1.935 1.923-2.588.857-.542 1.807-.908 2.686-1.436l.094-.065c-.134.19-.272.384-.394.578-.76 1.196-1.486 2.352-2.31 3.504-.824 1.152-1.543 2.466-2.35 3.676-.379.57-.758 1.274-1.206 1.877.217-1.005.437-2.006.723-2.983.256-.897.65-1.676.83-2.58l.004.017ZM-6.243 24.97c.112-1.051.669-1.938.882-2.965.228-1.077.792-1.985 1.131-3.037.34-1.052.597-2.186.839-3.299.296-.373.566-.766.806-1.177.856-1.275 1.695-2.56 2.504-3.867.763-1.235 1.696-2.34 2.411-3.608.362-.62.741-1.202 1.142-1.794l.062-.094c.845-.574 1.651-1.206 2.48-1.795a9.014 9.014 0 0 0 2.168-1.945C8.879.44 9.266-.583 10.108-1.434c1.688-1.723 3.199-3.4 5.595-4.093 1.2-.359 2.4-.718 3.614-1.026 1.009-.248 1.937-.392 2.826-.955a.764.764 0 0 0 .188-.165c.781-.173 1.555-.36 2.281-.524 2.212-.467 3.976-1.724 5.982-2.682 1.084-.52 2.284-1.099 3.397-.316a10.17 10.17 0 0 1 1.92 1.702c1.318 1.576 2.645 2.965 4.567 3.816 1.808.8 3.994 1.077 5.942 1.306 1.497.183 3.105.747 4.572 1.185 1.605.481 3.47 1.526 4.41 2.937-.188.359-.362.718-.524 1.03-.308.578-.582 1.17-.843 1.766a2.508 2.508 0 0 0-.36-.718c-.178.36-.362.718-.529 1.077.116.359.149.75.246 1.13a28.229 28.229 0 0 1-.936 1.975c-.198.37-.416.73-.65 1.077-.058-.133-.12-.269-.178-.409-.021-.05-.04-.1-.057-.147-.062.161-.127.327-.188.492-.105.29-.206.581-.311.88.021.046.036.1.058.146l-.206.284a30.106 30.106 0 0 1-1.985 4.91c.041.093.093.18.156.26a1.721 1.721 0 0 0 1.446.552c.267.243.515.507.74.79.723.908.951 2.01 1.067 3.148.09.894-.495 2.212-.463 3.231-.107.434-.19.874-.246 1.318-.68 1.353-1.268 2.75-1.97 4.089-.198.359-.383.775-.578 1.17a9.179 9.179 0 0 1-.231-1.289c-.228-2.305.701-4.484.943-6.738a.357.357 0 0 0-.232-.361.362.362 0 0 0-.15-.023 4.602 4.602 0 0 0-.243-2.89 7.414 7.414 0 0 0-1.207-2.007c-.235 0-.477-.158-.362-.441-.56-.64-1.167-1.243-1.727-1.856.253-1.483.535-2.966.744-4.459.18.105.34.243.47.406.293.391.271.865.401 1.324.204.813.528 1.59.962 2.309.14-.36.282-.718.426-1.077-.202-.36-.361-.75-.553-1.185-.26-.6-.26-1.396-.723-1.895a2.895 2.895 0 0 0-.896-.586 25.52 25.52 0 0 0 .163-2.136v-1.02a5.386 5.386 0 0 1 1.843.277 3.1 3.1 0 0 1 1.467.898c.311.416.322.912.434 1.403.098-.24.195-.48.29-.718l.256-.65a1.958 1.958 0 0 0-.362-.638c-.498-.535-1.55-.898-2.215-1.163a6.58 6.58 0 0 0-1.608-.36c.06-.328.183-.642.36-.926.084-.129-.122-.244-.202-.118a2.86 2.86 0 0 0-.393 1.016 12.306 12.306 0 0 1-.684-.086 11.793 11.793 0 0 1-2.793-.675c-.933-.36-1.739-.998-2.668-1.35-.928-.352-1.713-.083-2.642-.05-1.326.05-2.768-.36-3.484-1.512-.575-.915-.98-1.751-1.727-2.552-1.388-1.49-2.209-1.493-4.117-.74-.969.381-1.59 1.135-2.378 1.666a6.256 6.256 0 0 1-.163-.764c-.05-.36-.603-.255-.596.079.007.333.025.718.047 1.077-1.258.484-2.71.075-4.034.23A9.7 9.7 0 0 0 18.063-.67h-.04C16.14.178 14.676.605 13.802 2.633c-.701 1.637-1.052 3.04-2.697 3.974a18.807 18.807 0 0 0-2.79 1.813C6.7 9.752 5.117 10.707 4.257 12.667c-.514 1.181-.52 2.438-1.135 3.59-.232.438-.503.858-.763 1.278a60.563 60.563 0 0 1 2.563-6.681c.072-.158-.16-.294-.235-.136A63.469 63.469 0 0 0 1.77 18.22l-.072-.072a3.213 3.213 0 0 1-.264-.187c-.34-.27-.824.18-.488.485.19.17.39.329.6.474-.177.549-.362 1.076-.513 1.644a56.349 56.349 0 0 0-1.29 5.144c-.203.984-.875 2.129-.286 3.055a.055.055 0 0 0 .072.029.055.055 0 0 0 .029-.072c-.217-.66 0-1.138.202-1.763.22-.693.333-1.436.485-2.132.195-.916.426-1.817.676-2.71-.03.29-.047.581-.055.865-.032 1.077.322 2.003.17 3.076C.675 28.57-.93 30.663-.77 33.32c.08 1.458.904 2.617.875 4.118-.022 1.077-.22 2.118 0 3.166v5.522a14.354 14.354 0 0 1-1.536-1.2.442.442 0 0 1-.054-.06v-1.077c-.022-1.436.14-2.793.22-4.211.08-1.418 0-2.922-.029-4.373a.125.125 0 0 0-.126-.126.125.125 0 0 0-.127.126c0 1.436.043 2.926-.05 4.373-.048.718-.203 1.436-.246 2.154-.044.718 0 1.475 0 2.215v.513a5.855 5.855 0 0 1-1.103-3.838c.047-1.21.33-2.365.123-3.59l-.072-.42c.188-1.106.317-2.222.387-3.342a.118.118 0 0 0-.12-.118.12.12 0 0 0-.119.118 17.32 17.32 0 0 1-.296 2.398 10.17 10.17 0 0 1 .029-3.665c.466-2.287 1.93-4.455 1.807-6.871a6.395 6.395 0 0 0-.362-1.605.114.114 0 0 0-.054-.176l-.076-.255c.026-.075.05-.15.069-.222a15.02 15.02 0 0 1 .994-2.513c.647-1.375 1.185-2.782 1.764-4.186.68-1.651 1.445-3.26 2.24-4.86.43-.866.803-1.752 1.171-2.639a5.79 5.79 0 0 0 1.023-.61c.933-.74 1.807-1.48 2.816-2.13 2.01-1.302 2.689-2.634 3.592-4.82.412-.998.767-2.003 1.446-2.847.29-.343.631-.64 1.012-.88a.112.112 0 0 0 .148.054c1.594-.596 3.304-1.662 4.948-1.927 1.905-.31 4.214.308 5.996-.496.95-.427 1.446-1.289 2.302-1.824a6.169 6.169 0 0 1 2.212-.865c1.244-.136 2.266.589 3.015 1.565 1.084 1.404 1.344 3.4 3.133 4.118a8.952 8.952 0 0 0 2.92.542c.456 0 .871-.15 1.32-.172 1.048-.054 1.684.542 2.425 1.163C44.353.813 45.994.982 47.844 1.014c1.114 0 2.375-.086 3.408.313a5.15 5.15 0 0 1 1.262.62c.134-.269.278-.53.43-.786a13.62 13.62 0 0 0-1.847-.818c-.885-.36-1.923-.388-2.852-.531a13.317 13.317 0 0 1-3.151-.758c-1.056-.423-1.963-1.127-3.014-1.526-1.052-.398-1.93-.093-2.979-.053-1.5.053-3.126-.417-3.932-1.71-.647-1.03-1.106-1.974-1.948-2.871-1.565-1.684-2.494-1.684-4.644-.837-1.374.543-2.115 1.745-3.405 2.28-1.445.592-3.115.111-4.637.287-1.362.171-2.68.595-3.885 1.25h-.044c-2.128.958-3.78 1.435-4.763 3.733-.792 1.842-1.19 3.428-3.043 4.48a21.267 21.267 0 0 0-3.148 2.046l-.264.216a.116.116 0 0 0-.185.043l-.065.158c-1.084.85-2.11 1.608-2.945 2.592.842-1.35 2.219-3.615 1.948-3.723-.09-.036-.156.115-.069.158.033.018-1.337 2.193-1.492 2.43A45.798 45.798 0 0 0-.402 13.25c-.817 1.697-1.493 3.46-2.324 5.155-.112.23-.503.936-.477 1.382-.6 1.105-1.06 2.286-1.609 3.417a42.46 42.46 0 0 0-1.705 3.974c-.094.259-.192.517-.282.783.247-.99.431-1.995.553-3.009l.003.018Zm4.699 24.623c0-.43.029-.865.032-1.295v-2.492c.48.384 1.016.718 1.576 1.113-.018 1.124-.043 2.247 0 3.367a23.361 23.361 0 0 0-1.626-.71l.018.017Zm-4.041-7.955-.12.769a9.043 9.043 0 0 0-.766-1.774 64.11 64.11 0 0 1 1.938-8.472c.462-1.583 1.004-3.145 1.536-4.71.199-.592.321-1.238.484-1.87-.003.17-.016.34-.04.51-.397 2.846-2.219 5.198-2.053 8.195.036.488.128.97.275 1.436-.506 1.95-.961 3.899-1.272 5.898l.018.018Zm3.81-20.595c-.044.108-.091.212-.134.32a9.883 9.883 0 0 1 1.221-4.283C-.095 16.059.613 15.1.968 13.963c.408-1.3.397-2.746 1.286-3.87.438-.553 1.204-.89 1.948-1.242l-.021.054a74.665 74.665 0 0 1-1.265 2.592A68.921 68.921 0 0 0 .588 16.59c-.68 1.658-1.446 3.274-2.129 4.936-.13.33-.235.66-.332.998A3.628 3.628 0 0 1-1.927 22v-.076c.104-.262.213-.52.325-.779.036-.136-.137-.24-.192-.122l.018.018Zm.495-4.33a3.814 3.814 0 0 0-.817 1.193 9.81 9.81 0 0 1-.477.825c.451-1.123 1.181-2.549 1.24-2.678a60.33 60.33 0 0 1 2.237-4.706c-.438 1.217-.506 2.491-1.135 3.676-.304.574-.669 1.113-1.009 1.666l-.04.025Zm-6.578 20.639c-.286-1.935 0-4.057.329-6.035v.05a.043.043 0 0 0 .083 0c.104-1.482.65-2.871 1.174-4.264.524-1.393 1.142-2.725 1.782-4.057.47-.98.868-1.996 1.37-2.958a.363.363 0 0 0 .195.086c.058 0 .108-.071.043-.1-.065-.029-.075-.172-.04-.36.254-.43.554-.832.792-1.27l.072-.144c-.032.101-.068.194-.097.295a17.876 17.876 0 0 0-.607 4.006 5.56 5.56 0 0 0 .025.697c-.213.492-.454.971-.723 1.436-.723 1.21-1.005 2.606-1.619 3.866-1.196 2.445-2.53 5.496-2.223 8.278 0 .054.098.079.109 0 .213-1.536.361-3.015.816-4.505a32.92 32.92 0 0 1 1.692-4.057c.531-1.141.77-2.394 1.417-3.49.212-.36.404-.733.574-1.116.047.399.105.79.141 1.189-.173.556-.292 1.138-.448 1.701-.484 1.734-1.189 3.41-1.71 5.137-.52 1.727-.968 3.59-1.37 5.407-.223 1.012-.469 2.035-.617 3.07-.503-.916-1.009-1.832-1.16-2.862Zm2.313 9.19c-.21-.994.068-2.093 0-3.134.162-1.174.332-2.348.538-3.514.217-1.225.517-2.43.817-3.637a7.97 7.97 0 0 1 .546 2.657c-.018.893-.145 1.773-.112 2.652v.133a33.55 33.55 0 0 0 .184 6.997c-.903-.463-1.756-1.135-1.988-2.154h.015Zm2.248 2.29c0-1.034-.16-2.1-.174-3.13 0-.887-.036-1.777-.021-2.664.294.95.853 1.8 1.612 2.449v3.955c-.423-.172-.846-.358-1.255-.534l-.162-.076Zm3.694 1.58a.175.175 0 0 1 0-.043C.33 49.29.35 48.196.364 47.112c.152.104.304.212.459.326a.21.21 0 0 0 .101.04c.062.065.116.118.16.158.36.309.758.578 1.149.854 0 1.023.032 2.054.115 3.077A10.779 10.779 0 0 0 .397 50.41Zm4.463 3.213a16.481 16.481 0 0 0-2.1-1.741c-.05-.485-.097-.966-.126-1.436a66.92 66.92 0 0 1-.062-1.695c.214.155.423.316.618.489.702.62 1.33 1.32 2.013 1.953.076 1.023.167 2.046.279 3.058-.199-.201-.409-.388-.622-.628Zm.947.9c-.072-.642-.123-1.284-.173-1.927a56.38 56.38 0 0 0-.102-1.123c.299.262.617.502.95.718.296.182.604.342.923.48.092.726.142 1.456.151 2.187 0 .326-.025.65-.025.973l-.499-.36c-.459-.333-.85-.628-1.225-.947Zm2.035 1.591c-.018-.502.032-1.034 0-1.543a27.756 27.756 0 0 0-.127-1.734c.232.104.46.2.683.32.29.177.565.376.825.595 0 1.095.13 2.265.21 3.342-.548-.3-1.078-.626-1.591-.98Zm6.281 3.109a2.528 2.528 0 0 1-.032-.438 7.654 7.654 0 0 0-.105-1.601 10.094 10.094 0 0 1-.134-1.321c.21.068.42.136.618.215.336.137.687.24 1.038.36v.326c.058 1.055.162 2.082.18 3.127a35.273 35.273 0 0 0-1.565-.668Zm3.615 1.63c0-.384.025-.768.025-1.152v-2.154c.307.29.582.628.936 1.015.058.065.12.126.18.187 0 .94 0 1.881.026 2.822-.188-.126-.361-.248-.564-.36-.202-.11-.408-.247-.621-.358h.018Zm1.445.894v-.492c0-.743.022-1.483.026-2.222a5.612 5.612 0 0 0 1.615.933c.054.619.054 1.241 0 1.86-.003.378.017.755.062 1.13l-.156-.11c-.52-.345-1.04-.726-1.568-1.085l.021-.014Zm1.977 1.382a6.784 6.784 0 0 1-.047-.718c.067-.776.082-1.556.047-2.334l.105.036c.046.382.07.765.072 1.15 0 .66-.17 1.302.098 1.93l-.134.03-.14-.094Zm.535.018c-.444-.133-.1-2.036-.13-2.405 0-.19-.032-.377-.054-.564a7.389 7.389 0 0 0 1.948.226c.069.474.137.948.188 1.436.043.377.072.754.108 1.13a9.88 9.88 0 0 0-1.489.073c-.2.023-.397.058-.592.104h.021Zm4.15-1.149c-.09.359-.297.718-.395 1.077a19.708 19.708 0 0 0-1.517-.13c-.022-.426-.03-.857-.066-1.288-.036-.43-.086-.85-.144-1.274.463-.02.925-.066 1.384-.137.047-.273.108-.538.174-.808-.557.078-1.119.117-1.681.119a62.535 62.535 0 0 1-.166-1.152c-.09-.65-.149-1.314-.2-1.978.709.068 1.423.05 2.126-.058.119 1.172.308 2.336.567 3.486.004.021.016.04.034.053.017.013.039.018.06.015-.025.057-.047.118-.072.172l.18-.032c-.122.646-.155 1.34-.306 1.935h.021Zm4.474-10.192c-.141-.7-1.041-.66-1.392-.18a11.556 11.556 0 0 0-1.424 2.661 39.973 39.973 0 0 1-.43 1.964 25.639 25.639 0 0 1-.961 3.471c-.16-1.124-.38-2.24-.542-3.367.206-.029.408-.065.614-.104.058-.234.112-.467.166-.718-.292.05-.585.097-.878.129a10.08 10.08 0 0 0-.788-2.832c-.065-.14-.274-.019-.21.121.387.871.65 1.79.781 2.732a9.608 9.608 0 0 1-2.081 0 18.731 18.731 0 0 0-.64-4.006c-.047-.154-.293-.09-.246.065.342 1.28.543 2.593.6 3.916l-.184-.028a3.838 3.838 0 0 1-1.627-.7c0-.927-.235-1.795-.282-2.729 0-.115-.188-.115-.18 0 .032.862.195 1.695.23 2.55a9.67 9.67 0 0 1-1.253-1.286 4.37 4.37 0 0 0-.622-.596c-.022-.28-.04-.556-.061-.833-.062-.822-.148-1.712-.748-2.333-.138-.14-.362.072-.214.212.64.667.676 1.762.698 2.717a9.311 9.311 0 0 0-1.008-.574 10.792 10.792 0 0 1-.163-1.314c-.022-.79.061-1.547-.17-2.258.251.069.499.151.74.247.525.209 1.103.33 1.62.546.723.312 1.034.736 1.561 1.321a4.2 4.2 0 0 0 1.948 1.181c1.338.399 2.653.19 3.976-.09.022-.09.043-.183.069-.272a.248.248 0 0 1 .271-.174.25.25 0 0 1 .217.238v.086a13.82 13.82 0 0 1 2.79-.416c1.02 0 2.23.111 3.21-.233.979-.345 1.944-1.124 2.847-1.655.904-.532 1.753-1.267 2.697-1.842.943-.574 1.984-1.123 2.736-2.01.704-.83 1.055-1.831 1.583-2.764.28-.486.592-.953.936-1.397.87.517 1.749 1.03 2.63 1.533-.401.512-.78 1.036-1.134 1.572-.05-.337-.094-.67-.127-1.008 0-.14-.23-.144-.216 0 .032.434.094.865.159 1.296-.246.384-.481.771-.694 1.163-.265.501-.57.982-.911 1.436a7.91 7.91 0 0 0-.502-1.558c-.07-.155-.293-.022-.224.133a8.27 8.27 0 0 1 .516 1.687 7.574 7.574 0 0 1-1.745 1.558c-1.171.75-2.498 1.224-3.593 2.096a31.733 31.733 0 0 1-2.696 1.795 8.823 8.823 0 0 1-.188-.97c-.022-.168-.29-.171-.267 0 .05.377.125.75.224 1.117l-.152.097c-.484.38-.996.721-1.533 1.023-.784.36-1.959.492-2.837.557l-.296.018c-.217-.988-.416-1.982-.622-2.99h.022Zm1.587 6.642a35.474 35.474 0 0 1-.806-2.955c.879.044 1.76.017 2.634-.082.192.868.362 1.737.557 2.606-.783.234-1.591.378-2.407.43h.021Zm.997 4.602a7.104 7.104 0 0 1-.304-1.102c-.148-.89-.238-1.777-.451-2.65.799.034 1.6-.014 2.389-.143.126.581.256 1.16.394 1.737.086.36.159.718.235 1.077-.275.13-.543.266-.81.413-.473.261-.966.484-1.475.668h.022Zm4.843-2.118c-.155-.916-.416-1.817-.593-2.728 0-.072-.025-.144-.04-.22.64-.405 1.266-.843 1.87-1.199.122-.071.234-.15.36-.226.268 1.16.528 2.32.828 3.468-.827.33-1.637.614-2.447.905h.022Zm2.707-1.023h-.04c-.177-.571-.361-1.142-.491-1.691-.13-.55-.26-1.2-.39-1.795.994-.653 1.904-1.393 2.924-2.025.043.36.083.718.115 1.077.094 1.049.072 2.122.134 3.18-.788.385-1.507.92-2.273 1.254h.021Zm4.569-3.055a2.955 2.955 0 0 1-1.32 1.436c-.222.05-.44.12-.65.208a33.042 33.042 0 0 0-.235-3.364c-.029-.301-.065-.603-.101-.904.775-.44 1.526-.92 2.251-1.436.055.24.105.484.145.718.099.954.134 1.913.105 2.872-.077.155-.15.312-.217.47h.022Zm.426-1.016a10.76 10.76 0 0 0 0-2.046c-.052-.4-.126-.797-.22-1.189.343-.277.66-.583.95-.915.094-.115.184-.23.271-.36.05.859.109 1.717.195 2.571-.119.137-.238.27-.361.413-.35.47-.638.983-.857 1.526h.022Zm1.464-2.24a8.514 8.514 0 0 1-.072-.657 59.21 59.21 0 0 0-.141-1.968c.607-.933 1.019-1.967 1.572-2.947.09-.161.188-.32.285-.48.036.358.069.717.105 1.076.087 1.033.119 2.07.094 3.105v.119l-.177.154c-.59.503-1.164 1.03-1.688 1.598h.022Zm2.125-2.05a29.76 29.76 0 0 0-.199-3.723c-.025-.215-.032-.427-.05-.642.51-.755 1.061-1.481 1.651-2.176.03.56.05 1.124.105 1.68.09.98.141 1.946.134 2.933 0 .208-.025.417-.036.625a12.61 12.61 0 0 1-1.627 1.303h.022Zm2.024-1.637a35.286 35.286 0 0 0-.257-3.748c-.047-.495-.068-.987-.097-1.472.253-.301.506-.596.755-.88.362-.416.723-.803 1.117-1.17.033.313.047.627.04.941-.026.757-.112 1.511-.174 2.265-.089.96-.117 1.926-.087 2.89-.433.41-.87.797-1.319 1.178l.022-.004Zm14.403-13.01c-.954 2.057-2.935 2.355-4.699 3.486-.565.427-1.087.908-1.557 1.436a7.89 7.89 0 0 1-2.53 1.615 3.043 3.043 0 0 0-.633.36 11.72 11.72 0 0 0 .04-2.542.149.149 0 0 0-.141-.14 1.117 1.117 0 0 0-.85.194.14.14 0 0 0 .038.256c.037.009.075.003.107-.016.857-.528.654 1.055.643 1.393-.01.337-.047.718-.083 1.052-1.142 1.001-1.72 2.7-2.635 3.852-.151.186-.307.359-.47.542.026-.959 0-1.928.087-2.872a17.8 17.8 0 0 0 .033-3.098 13.573 13.573 0 0 1 2.577-1.867 30.362 30.362 0 0 0 4.073-2.61c2.067-1.64 4.182-4.667 3.04-7.355-.76-1.795-1.728-3.44-2.317-5.306-.755-2.391-.061-4.473.264-6.821a.447.447 0 0 0-.134-.388c.322-.885.516-1.81.575-2.75 0-.965.217-2.21-.062-3.126-.278-.916-1.276-2.003-1.922-2.765-.062-.068-.127-.129-.192-.193.231-.148.463-.298.697-.438.434-.262.994-.489 1.497-.772.238.222.48.438.723.653.645.578 1.238 1.21 1.77 1.892.326.315.617.664.868 1.041.47.934.134 1.418-.31 2.237a8.923 8.923 0 0 0-1.045 5.162c.159 2.046.162 4.257.589 6.268.226.923.53 1.826.907 2.7.17.42.412.84.564 1.263.152.52.248 1.056.285 1.598.297 2.07 1.128 3.995.181 6.06h.022Z"/>
        <path d="M33.583 3.039c0-.208-.026-.42-.033-.628a.311.311 0 0 0-.34-.306.316.316 0 0 0-.158.058 7.071 7.071 0 0 0-.868-1.181C31-.29 30.298-.293 28.671.35a3.233 3.233 0 0 0-.575.305l.113.496c.48-.291 1.01-.49 1.564-.59.94-.103 1.714.446 2.277 1.182.32.46.597.948.828 1.457-.058 1.2-.145 2.398-.213 3.59-.755-.021-1.518-.064-1.923-.736-.405-.671-.18-1.371-.871-1.884a1.88 1.88 0 0 0-1.12-.36c.094.514.18 1.024.26 1.537.114.097.215.208.3.33.105.282.195.568.27.858.648 1.36 1.808.88 3.048 1.034 0 .302-.03.603-.04.908-.025.884-.094 1.813-.09 2.736-.9-.94-1.273-2.014-2.708-2.222-.13 0-.245-.047-.36-.072.024.359.046.718.064 1.077.17-.027.343-.027.513 0 1.128.251 1.706 1.58 2.556 2.355.047.549.156 1.09.325 1.615a.36.36 0 0 0 .347.259.363.363 0 0 0 .347-.259c.029-.079.047-.161.072-.244-.152-1.726.025-3.478.109-5.205.028-.574.032-1.163.04-1.755-.048-.815-.102-1.63-.149-2.445.072.071.148.139.228.2a12.5 12.5 0 0 1 .108-.98 2.262 2.262 0 0 1-.332-.405c-.03-.014-.054-.054-.076-.093ZM26.199 35.556c1.565-.173 2.512-2.154 3.057-3.396.546-1.242 1.2-2.538 2.494-3.21.864-.448 1.728-.32 2.617-.585 1.059-.312 1.746-1.72 1.637-2.84-.133-1.37-1.77-2.074-2.891-2.47a12.604 12.604 0 0 1-4.203-2.24c-.723-.603-1.218-1.037-2.111-1.295-.474-.14-1.706-.69-2.306-.36-.43.227-.524.765-.705 1.228-1.106.826-1.185 1.63-1.2 3.116a5.549 5.549 0 0 1-.245 1.756c-.398 1.22-1.537 1.931-1.97 3.058-.608 1.57.903 3.558 1.781 4.71.994 1.282 2.162 2.714 4.045 2.528Zm-3.08-10.21c.264-1.583-.607-3.04.272-4.308a.15.15 0 0 0 .146.134.153.153 0 0 0 .07-.015c.535-.284.741-.876 1.247-1.113.506-.237 1.555.204 2.169.441 1.008.392 1.54 1.077 2.407 1.673.667.416 1.373.768 2.107 1.052.976.42 2.443.686 3.098 1.59.759 1.056.14 2.136-.915 2.617-.397.18-.78.148-1.16.327a8.261 8.261 0 0 0-1.514 1.077 9.706 9.706 0 0 0-1.638 1.601c-.448.625-.44 1.364-.784 2.043-.857 1.694-2.852 3.066-4.58 1.698-.834-.66-1.485-1.903-2.012-2.836-1.406-2.51.712-3.72 1.088-5.999v.018Z"/>
        <path d="M24.221 31.966a2.06 2.06 0 0 0 2.755-.265c.495-.51.787-1.224 1.174-1.813.597-.905 1.352-1.544 2.053-2.348.701-.804.976-1.651.452-2.603-.48-.868-1.72-1.561-2.588-1.978-.972-.47-1.88-.76-2.696-.118.05-.043 0-.13-.058-.09-.91.607-1.377 1.282-1.182 2.391.224 1.26.383 1.86-.14 2.958-.198.35-.34.73-.42 1.124-.264 1.134-.39 2.082.65 2.742Zm.839-3.905c.484-1.508-1.124-3.684.036-4.962-.054.072.025.19.108.133 1.627-1.077 5.18 1.278 5.06 2.976-.068.894-1.033 1.472-1.543 2.1-.51.628-.846 1.4-1.319 2.072-.947 1.332-2.891 1.917-3.126-.22-.102-.832.564-1.403.784-2.085v-.014Z"/>
        <path d="M26.155 28.775a.81.81 0 0 0 1.066.38c.806-.33 1.085-1.457 1.262-2.197a.071.071 0 0 0-.043-.078.072.072 0 0 0-.087.024c-.286.402-.394.851-.636 1.271-.138.233-.452.74-.774.718-.694-.036-.412-.65-.336-.951a3.44 3.44 0 0 0 .177-1.095 3.038 3.038 0 0 0-.12-.56l-.108-.36a.756.756 0 0 1 .224-.764.219.219 0 0 0 .235.152.221.221 0 0 0 .094-.033.995.995 0 0 1 .842-.151c.481.082.39.718.39 1.098a.072.072 0 0 0 .073.072c.02 0 .038-.007.051-.02a.072.072 0 0 0 .021-.052 2.07 2.07 0 0 0-.018-.987c-.09-.204-.303-.32-.47-.456-.199-.18-.453-.29-.722-.309a.527.527 0 0 0-.5.36 1.164 1.164 0 0 0-.657 1.008c.035.235.09.467.163.693a2.89 2.89 0 0 1-.101 1.303c-.113.3-.122.628-.026.934Z"/>
    </g>
    <mask id="b" fill="#fff">
        <path fill-rule="evenodd" clip-rule="evenodd" d="M1 0v51h51.346V15.093h-2.884v-2.868h-2.885V9.356h-2.884V6.488h-2.885V0H1Z"/>
    </mask>
    <path d="M1 51h-3v3h3v-3ZM1 0v-3h-3v3h3Zm51.346 51v3h3v-3h-3Zm0-26.55v-3h-3v3h3Zm0 0v3h3v-3h-3Zm0-9.357h3v-3h-3v3Zm-2.884 0h-3v3h3v-3Zm0-2.868h3v-3h-3v3Zm-2.885 0h-3v3h3v-3Zm0-2.869h3v-3h-3v3Zm-2.884 0h-3v3h3v-3Zm0-2.868h3v-3h-3v3Zm-2.885 0h-3v3h3v-3Zm0-6.488h3v-3h-3v3ZM4 51V0h-6v51h6Zm48.346-3H1v6h51.346v-6Zm-3-23.55V51h6V24.45h-6Zm3 3v-6 6Zm3-3v-9.357h-6v9.356h6Zm-3-12.357h-2.884v6h2.884v-6Zm.116 3v-2.868h-6v2.868h6Zm-3-5.868h-2.885v6h2.885v-6Zm.115 3V9.356h-6v2.869h6Zm-3-5.869h-2.884v6h2.884v-6Zm.116 3V6.488h-6v2.868h6Zm-3-5.868h-2.885v6h2.885v-6Zm.115 3V0h-6v6.488h6Zm-3-9.488h-3.173v6h3.173v-6Zm-3.173 0H35.23v6h2.404v-6ZM35.23-3h-.192v6h.192v-6ZM1 3h34.039v-6H1v6Z" fill="#3E3E3E" mask="url(#b)"/>
    <path fill="#3E3E3E" d="M49.461 7.832h2.885v2.865h-2.885zM44.461 3.82h2.885v2.865h-2.885zM49.461 0h2.885v2.865h-2.885z"/>
    <path fill-rule="evenodd" clip-rule="evenodd" d="M61.054 10.279V2.937h2.938v7.342h-2.938Zm0 13.215V13.216h4.408v-1.469h1.47V1.468h-1.47V0h-7.347v23.494h2.939Zm20.864 0v-2.936h-2.939V2.937h2.939V0h-8.816v2.937h2.938v17.62h-2.938v2.937h8.816Zm9.11 0V13.216h-2.94v10.278h2.94Zm5.876 0V13.216h-1.47v-1.469h-1.468V10.28h-1.47V8.81h-1.469V0h-2.939v10.279h1.47v1.468h1.47v1.469h1.468v1.468h1.47v8.81h2.938Zm0-13.215V0h-2.938v10.279h2.938Zm14.987 13.215v-2.936h-5.877v-7.342h4.407v-2.937h-4.407V2.937h5.877V0h-8.816v23.494h8.816Zm9.109 0V0h-2.938v23.494H121ZM65.86 51v-1.54h1.549V51h4.646v-1.54h1.55v-23.1h-3.099v21.56H67.41V26.36H64.31v21.56h-3.098V26.36h-3.098v23.1h1.55V51h6.195Zm17.347-3.08V29.44h3.098v18.48h-3.098ZM87.854 51v-1.54h1.549V27.9h-1.549v-1.54h-6.195v1.54h-1.55v21.56h1.55V51h6.195Zm11.152-3.08V29.44h3.098v18.48h-3.098Zm4.647 3.08v-1.54h1.549V27.9h-1.549v-1.54h-6.196v1.54h-1.549v21.56h1.55V51h6.195Zm11.152-3.08V29.44h3.097v18.48h-3.097Zm4.646 3.08v-1.54H121V27.9h-1.549v-1.54h-7.744V51h7.744Z" fill="#3E3E3E"/>
</svg>
