<svg width="55" height="55" fill="none" xmlns="http://www.w3.org/2000/svg">
    <path d="M36.817 19.506 24.568 30.89c-.43.4-.708.937-.787 1.52l-.416 3.091c-.056.413-.636.454-.75.054l-1.605-5.638a1.495 1.495 0 0 1 .653-1.681l14.842-9.142c.267-.163.541.198.312.41ZM55 0v55H0V0h55ZM42.76 13.214 11.595 25.237c-.768.296-.762 1.386.01 1.674l7.593 2.834 2.94 9.453a.895.895 0 0 0 1.42.428l4.233-3.45a1.262 1.262 0 0 1 1.539-.044l7.635 5.544a.895.895 0 0 0 1.403-.542l5.592-26.903a.895.895 0 0 0-1.198-1.017Z" fill="#3E3E3E"/>
</svg>
