<?xml version="1.0" encoding="utf-8"?><svg viewBox="0 0 55 55" xmlns="http://www.w3.org/2000/svg" xmlns:xlink="http://www.w3.org/1999/xlink"><style>:root>svg{display:none}:root>svg:target{display:block}</style><svg viewBox="0 0 49 16" id="icon-arrow-left" xmlns="http://www.w3.org/2000/svg"><path d="M.992 7.09a1 1 0 000 1.413l6.364 6.364a1 1 0 001.414-1.414L3.114 7.796 8.77 2.14A1 1 0 107.356.725L.992 7.09zm47.286-.294H1.7v2h46.58v-2z"/></svg><svg viewBox="0 0 49 16" id="icon-arrow-right" xmlns="http://www.w3.org/2000/svg"><path d="M48.008 8.91a1 1 0 000-1.413l-6.364-6.364a1 1 0 10-1.414 1.414l5.656 5.657-5.656 5.657a1 1 0 101.414 1.414l6.364-6.364zM.722 9.205H47.3v-2H.72v2z"/></svg><svg viewBox="0 0 17 17" id="icon-plus" xmlns="http://www.w3.org/2000/svg"><path d="M7.516.127h1.996v16H7.516z"/><path d="M.529 9.127v-2H16.5v2z"/></svg><svg viewBox="0 0 55 55" id="icon-tg" xmlns="http://www.w3.org/2000/svg"><path d="M36.817 19.506L24.568 30.89c-.43.4-.708.937-.787 1.52l-.416 3.091c-.056.413-.636.454-.75.054l-1.605-5.638a1.495 1.495 0 01.653-1.681l14.842-9.142c.267-.163.541.198.312.41zM55 0v55H0V0h55zM42.76 13.214L11.595 25.237c-.768.296-.762 1.386.01 1.674l7.593 2.834 2.94 9.453a.895.895 0 001.42.428l4.233-3.45a1.262 1.262 0 011.539-.044l7.635 5.544a.895.895 0 001.403-.542l5.592-26.903a.895.895 0 00-1.198-1.017z"/></svg></svg>